<?xml version="1.0" encoding="utf-8"?>
<!-- Generator: Adobe Illustrator 24.3.0, SVG Export Plug-In . SVG Version: 6.00 Build 0)  -->
<svg version="1.1" xmlns="http://www.w3.org/2000/svg" xmlns:xlink="http://www.w3.org/1999/xlink" x="0px" y="0px"
	 viewBox="0 0 168.6 135" style="enable-background:new 0 0 168.6 135;" xml:space="preserve">
<style type="text/css">
	.st0{display:none;}
	.st1{display:inline;fill:#22B573;}
	.st2{display:inline;fill:#F15A24;}
	.st3{display:inline;}
	.st4{fill:#93278F;}
	.st5{fill:#603813;}
	.st6{display:inline;fill:#754C24;}
	.st7{opacity:0.5;}
	.st8{fill:#F15A24;}
	.st9{display:inline;fill:#AF6868;}
</style>
<g id="apukirjaimet" class="st0">
</g>
<g id="Layer_1">
	<g>
		<path d="M46.1,39.9L54.5,19c4-9.9,8.6-15.5,16.3-19H33.6c5.4,2.1,9.8,4.6,9.8,8.6c0,2.4-0.8,5.1-2.4,9.1c-5.4,14.4-1.4,3.8-7,18.2
			c-5.4,14.4-0.5,1.2-7.7,19.2C19.9,70.5,17.4,76.5,13.8,84c-4.2,9.1-5.9,15.1-12.9,18.5h77.3c5.1,0,8.8,0.2,13.3,0.3L81.1,76.6
			c-0.3,8.6,2.1,19.5-7,19.5H33.8c-5.8,0-8.4-3.2-7.4-7.1c0.9-3.9,5.5-14,11-27.5L46.1,39.9z"/>
		<g>
			<path d="M58.3,23.7h22.2L84.9,35l32,81c4,9.9,8.6,15.5,16.3,19H96.1c5.4-2.1,9.8-4.6,9.8-8.6c0-2.4-0.8-5.1-2.4-9.1L74.7,43.8H74
				L56.9,87.1l-2.5,6.5l-10.2,25.8c-1.1,2.9-1.4,5-1.4,6.9c0,4.2,4.3,6.7,11,8.8H20.4c9.1-3.5,13.1-8.6,16.8-18.1
				c0,0,22.6-57,28.8-72.7c0.7-1.8,2-5.4,1.7-8.4C67.3,30.2,64.3,27.1,58.3,23.7z"/>
		</g>
		<path d="M152.3,83.8c4,9.9,8.6,15.5,16.3,19h-37.1c5.4-2.1,9.8-4.6,9.8-8.6c0-2.4-0.8-5.1-2.4-9.1l-16.1-41.2H122l-17.1,43.3
			l-6.2,15.7l-3.6-11.3l22-55.1c2.4-5.9,2.9-6.7,5-12.7h22.1h3c-6,3.7-11.5,6.7-11.9,11.6c-0.2,1.9-0.2,4.2,0.7,7.2
			C136.1,43.3,152.3,83.8,152.3,83.8z"/>
	</g>
</g>
<g id="apukirjain_päällä" class="st0">
	<g class="st3">
		<path class="st8" d="M107.9,129.6c0-2.4-0.9-5-2.6-9.3l-9.8-24.1H55.7l-10.2,26.3c-1.2,3.1-1.7,5.2-1.7,7.2
			c0,4.1,4.4,6.4,11.6,8.7H23.2c8.4-3.4,12.5-8.1,16.2-17.2l29.9-75.9c2.3-5.6,6.6-16,8.5-21.4h2l7.9,20l30.7,76.5
			c4,9.8,8.4,15,15.9,18H96.4C102.6,136.2,107.9,133.4,107.9,129.6z M93.5,91L75.7,46.7h-0.6L57.8,91H93.5z"/>
	</g>
	<g class="st3">
		<path class="st8" d="M143.2,97.9c0-2.4-0.9-5-2.6-9.3l-9.8-24.1H91L80.8,90.7c-1.2,3.1-1.7,5.2-1.7,7.2c0,4.1,4.4,6.4,11.6,8.7
			H58.5c8.4-3.4,12.5-8.1,16.2-17.2l29.9-75.9c2.3-5.6,6.6-16,8.5-21.4h2l7.9,20l30.7,76.5c4,9.8,8.4,15,15.9,18h-37.9
			C137.8,104.4,143.2,101.7,143.2,97.9z M128.8,59.3L111,15h-0.6L93.1,59.3H128.8z"/>
	</g>
	<g class="st3">
		<path class="st8" d="M23.6,97.9c0-2.4,0.9-5,2.6-9.3l9.8-24.1h39.8L86,90.7c1.2,3.1,1.7,5.2,1.7,7.2c0,4.1-4.4,6.4-11.6,8.7h32.2
			c-8.4-3.4-12.5-8.1-16.2-17.2L62.2,13.5c-2.3-5.6-6.6-16-8.5-21.4h-2l-7.9,20L13,88.6c-4,9.8-8.4,15-15.9,18H35
			C28.9,104.4,23.6,101.7,23.6,97.9z M37.9,59.3L55.8,15h0.6l17.2,44.3H37.9z"/>
	</g>
</g>
<g id="guides" class="st0">
</g>
</svg>
