<?xml version="1.0" encoding="utf-8"?>
<!-- Generator: Adobe Illustrator 26.3.1, SVG Export Plug-In . SVG Version: 6.00 Build 0)  -->
<svg version="1.1" id="Capa_1" xmlns="http://www.w3.org/2000/svg" xmlns:xlink="http://www.w3.org/1999/xlink" x="0px" y="0px"
	 viewBox="0 0 181.4 259.9" style="enable-background:new 0 0 181.4 259.9;" xml:space="preserve">
<style type="text/css">
	.st0{display:none;}
	.st1{display:inline;fill:#AF6868;}
</style>
<g id="apukirjaimet" class="st0">
</g>
<g id="Layer_1">
	<g>
		<g>
			<path d="M51.2,84.9L59.6,64c4-9.9,8.6-15.5,16.3-19H38.6c5.4,2.1,9.8,4.6,9.8,8.6c0,2.4-0.8,5.1-2.4,9.1
				c-5.4,14.4-1.4,3.8-7,18.2c-5.4,14.4-0.5,1.2-7.7,19.2c-6.3,15.4-8.8,21.4-12.5,28.9c-4.2,9.1-5.9,15.1-12.9,18.5h77.3
				c5.1,0,8.8,0.2,13.3,0.3l-10.3-26.2c-0.3,8.6,2.1,19.5-7,19.5H38.9c-5.8,0-8.4-3.2-7.4-7.1c0.9-3.9,5.5-14,11-27.5L51.2,84.9z"/>
			<g>
				<path d="M65.4,68.7h22.2L92,80l32,81c4,9.9,8.6,15.5,16.3,19h-37.1c5.4-2.1,9.8-4.6,9.8-8.6c0-2.4-0.8-5.1-2.4-9.1L81.7,88.8
					h-0.6L64,132.1l-2.5,6.5l-10.2,25.8c-1.1,2.9-1.4,5-1.4,6.9c0,4.2,4.3,6.7,11,8.8H27.5c9.1-3.5,13.1-8.6,16.8-18.1
					c0,0,22.6-57,28.8-72.7c0.7-1.8,2-5.4,1.7-8.4C74.4,75.2,71.4,72.1,65.4,68.7z"/>
			</g>
			<path d="M159.3,128.8c4,9.9,8.6,15.5,16.3,19h-37.1c5.4-2.1,9.8-4.6,9.8-8.6c0-2.4-0.8-5.1-2.4-9.1l-16.1-41.2h-0.6L112,132.1
				l-6.2,15.7l-3.6-11.3l22-55.1c2.4-5.9,2.9-6.7,5-12.7h22.1h3c-6,3.7-11.5,6.7-11.9,11.6c-0.2,1.9-0.2,4.2,0.7,7.2
				C143.2,88.3,159.3,128.8,159.3,128.8z"/>
		</g>
		<g>
			<path d="M11.6,214.7H9.3c-0.1-0.4-0.2-0.7-0.3-1.1c-0.1-0.4-0.2-0.7-0.4-1.1L8,211H3.3l-0.6,1.5c-0.1,0.3-0.2,0.6-0.4,1
				c-0.1,0.4-0.3,0.8-0.3,1.2H0c0.4-0.7,0.7-1.5,1-2.2l3.3-8.5c0.3-0.7,0.6-1.4,0.8-2h1.5c0.2,0.7,0.5,1.3,0.7,2l3.2,8.4
				C10.9,213.2,11.2,214,11.6,214.7z M7.5,209.6l-1.8-4.9H5.6l-1.8,4.9H7.5z"/>
			<path d="M13.1,214.3v-1.5c0.9,0.5,1.7,0.8,2.7,0.8c0.8,0,1.3-0.3,1.3-0.9c0-0.6-0.7-0.9-1.5-1.1c-1.2-0.4-2.6-0.9-2.6-2.6
				c0-1.8,1.3-2.7,2.9-2.7c1,0,1.8,0.2,2.3,0.5c0,0.5,0,1.1,0,1.7c-0.7-0.3-1.5-0.6-2.4-0.6c-0.8,0-1.4,0.3-1.4,1s0.7,0.9,1.6,1.2
				c1.2,0.4,2.6,0.8,2.6,2.5c0,1.6-1.1,2.4-2.8,2.4C14.7,214.9,13.8,214.6,13.1,214.3z"/>
			<path d="M21.1,212.4V208h-1.3l3-3.2v1.8h3l-0.1,1.5h-2.9v4.3c0,0.8,0.4,1.2,1.3,1.2c0.6,0,1.2-0.1,1.7-0.2v1.3
				c-0.5,0.2-1.3,0.3-2,0.3C22,214.9,21.1,214.1,21.1,212.4z"/>
			<path d="M26.9,212.7c0-1.4,0.9-2.1,2.4-2.3l2-0.2c0-0.4,0-0.7,0-1.1c0-0.8-0.5-1.2-1.4-1.2s-1.8,0.2-2.7,0.7v-1.7
				c0.9-0.4,1.9-0.6,3-0.6c1.8,0,2.8,0.7,2.8,2.4c0,1.4-0.2,3-0.2,4.3c0,0.5,0.2,0.7,0.7,0.7c0.2,0,0.4,0,0.6-0.1v1.1
				c-0.3,0.2-0.7,0.3-1.3,0.3c-1,0-1.6-0.6-1.6-1.7c0-0.6,0-1.2,0-1.9l-1.6,0.2c-0.7,0.1-1.1,0.4-1.1,1c0,0.8,0.5,1.1,1.3,1.1
				c0.5,0,1.1-0.2,1.4-0.3c-0.1,1-0.8,1.6-2.1,1.6C27.8,214.9,26.9,214,26.9,212.7z"/>
			<path d="M36.4,213.3v-9.4c0-0.7-0.1-1.3-0.5-1.9l2.2-0.4v11.8c0,0.6,0.1,1.1,0.2,1.4h-2.1C36.3,214.4,36.4,213.9,36.4,213.3z"/>
			<path d="M40.3,212.7c0-1.4,0.9-2.1,2.4-2.3l2-0.2c0-0.4,0-0.7,0-1.1c0-0.8-0.5-1.2-1.4-1.2s-1.8,0.2-2.7,0.7v-1.7
				c0.9-0.4,1.9-0.6,3-0.6c1.8,0,2.8,0.7,2.8,2.4c0,1.4-0.2,3-0.2,4.3c0,0.5,0.2,0.7,0.7,0.7c0.2,0,0.4,0,0.6-0.1v1.1
				c-0.3,0.2-0.7,0.3-1.3,0.3c-1,0-1.6-0.6-1.6-1.7c0-0.6,0-1.2,0-1.9l-1.6,0.2c-0.7,0.1-1.1,0.4-1.1,1c0,0.8,0.5,1.1,1.3,1.1
				c0.5,0,1.1-0.2,1.4-0.3c-0.1,1-0.8,1.6-2.1,1.6C41.2,214.9,40.3,214,40.3,212.7z"/>
			<path d="M58.6,213c0.1-1.1,0.1-2.2,0.1-4.6c0-2.1,0-3.5-0.1-4.6c0-0.7-0.1-1.3-0.1-1.8h2.1c-0.1,0.6-0.1,1.3-0.1,2.1
				c0,1.3-0.1,2.7-0.1,4.3c0,1.7,0,3.5,0,4.8h3.1c0.5,0,1,0,1.4-0.1v1.5h-1.6h-4.9C58.5,214.3,58.6,213.7,58.6,213z"/>
			<path d="M65.8,210.7c0-2.7,1.5-4.5,3.8-4.5c2.2,0,3.3,1.3,3.3,4c0,0.2,0,0.4,0,0.6h-5.5v0.3c0,1.4,1,2.4,2.8,2.4
				c1,0,1.8-0.2,2.4-0.5v1.3c-0.7,0.3-1.6,0.5-2.7,0.5C67.3,214.9,65.8,213.4,65.8,210.7z M71.3,209.7c0-1.2-0.6-2-1.8-2
				c-1.2,0-1.8,0.8-2,2H71.3z"/>
			<path d="M75.3,213.3v-9.4c0-0.7-0.1-1.3-0.5-1.9l2.2-0.4v11.8c0,0.6,0.1,1.1,0.2,1.4h-2.1C75.3,214.4,75.3,213.9,75.3,213.3z
				 M80.4,213.3v-4.1c0-1-0.5-1.5-1.6-1.5c-0.6,0-1.2,0.1-1.8,0.3c0.3-1.3,1.2-1.9,2.6-1.9c1.6,0,2.5,1,2.5,2.6v4.5
				c0,0.6,0.1,1,0.2,1.4h-2C80.4,214.3,80.4,213.9,80.4,213.3z"/>
			<path d="M85.2,212.4V208h-1.3l3-3.2v1.8h3l-0.1,1.5H87v4.3c0,0.8,0.4,1.2,1.3,1.2c0.6,0,1.2-0.1,1.7-0.2v1.3
				c-0.5,0.2-1.3,0.3-2,0.3C86.2,214.9,85.2,214.1,85.2,212.4z"/>
			<path d="M91,210.6c0-2.6,1.6-4.4,3.9-4.4c2.4,0,3.8,1.7,3.8,4.4c0,2.6-1.5,4.3-3.8,4.3C92.5,214.9,91,213.3,91,210.6z M97,210.8
				c0-1.8-0.7-3-2.1-3s-2.1,1.1-2.1,2.8s0.9,2.9,2.2,2.9C96.2,213.5,97,212.5,97,210.8z"/>
			<path d="M101,213.3v-9.4c0-0.7-0.1-1.3-0.5-1.9l2.2-0.4v11.8c0,0.6,0.1,1.1,0.2,1.4h-2.1C100.9,214.4,101,213.9,101,213.3z"/>
			<path d="M104.9,212.7c0-1.4,0.9-2.1,2.4-2.3l2-0.2c0-0.4,0-0.7,0-1.1c0-0.8-0.5-1.2-1.4-1.2s-1.8,0.2-2.7,0.7v-1.7
				c0.9-0.4,1.9-0.6,3-0.6c1.8,0,2.8,0.7,2.8,2.4c0,1.4-0.2,3-0.2,4.3c0,0.5,0.2,0.7,0.7,0.7c0.2,0,0.4,0,0.6-0.1v1.1
				c-0.3,0.2-0.7,0.3-1.3,0.3c-1,0-1.6-0.6-1.6-1.7c0-0.6,0-1.2,0-1.9l-1.6,0.2c-0.7,0.1-1.1,0.4-1.1,1c0,0.8,0.5,1.1,1.3,1.1
				c0.5,0,1.1-0.2,1.4-0.3c-0.1,1-0.8,1.6-2.1,1.6C105.8,214.9,104.9,214,104.9,212.7z"/>
			<path d="M123.5,213c0.2-2.7,0.3-6.1,0.4-8.8c0-0.6,0-1.8,0-2.2h2.2l4,9.9h0.1l3.9-9.9h2.1c0,0.9,0,1.6,0.1,2.5
				c0.1,2.8,0.2,5.6,0.3,8.3c0.1,0.8,0.1,1.4,0.3,2h-2.3c0.1-0.6,0.1-1.1,0.1-1.7l-0.3-7.8h-0.1l-3.5,8.9h-1.5l-3.7-8.9h-0.1
				l-0.2,7.7c0,0.6,0.1,1.3,0.1,1.8h-2.1C123.3,214.2,123.4,213.6,123.5,213z"/>
			<path d="M139.6,212.7c0-1.4,0.9-2.1,2.4-2.3l2-0.2c0-0.4,0-0.7,0-1.1c0-0.8-0.5-1.2-1.4-1.2s-1.8,0.2-2.7,0.7v-1.7
				c0.9-0.4,1.9-0.6,3-0.6c1.8,0,2.8,0.7,2.8,2.4c0,1.4-0.2,3-0.2,4.3c0,0.5,0.2,0.7,0.7,0.7c0.2,0,0.4,0,0.6-0.1v1.1
				c-0.3,0.2-0.7,0.3-1.3,0.3c-1,0-1.6-0.6-1.6-1.7c0-0.6,0-1.2,0-1.9l-1.6,0.2c-0.7,0.1-1.1,0.4-1.1,1c0,0.8,0.5,1.1,1.3,1.1
				c0.5,0,1.1-0.2,1.4-0.3c-0.1,1-0.8,1.6-2.1,1.6C140.5,214.9,139.6,214,139.6,212.7z"/>
			<path d="M148.9,213.3v-4.9c0-0.7-0.1-1.2-0.3-1.8l2-0.4v7.1c0,0.6,0.1,1,0.2,1.4h-2C148.9,214.3,148.9,213.9,148.9,213.3z
				 M154,213.3v-4.1c0-1-0.5-1.5-1.6-1.5c-0.6,0-1.2,0.1-1.8,0.3c0.3-1.3,1.2-1.9,2.6-1.9c1.6,0,2.5,1,2.5,2.6v4.5
				c0,0.6,0.1,1,0.2,1.4h-2C154,214.3,154,213.9,154,213.3z"/>
			<path d="M158.8,212.4V208h-1.3l3-3.2v1.8h3l-0.1,1.5h-2.9v4.3c0,0.8,0.4,1.2,1.3,1.2c0.6,0,1.2-0.1,1.7-0.2v1.3
				c-0.5,0.2-1.3,0.3-2,0.3C159.8,214.9,158.8,214.1,158.8,212.4z"/>
			<path d="M165.3,213.3v-4.9c0-0.7-0.1-1.2-0.3-1.8l2-0.4v7.1c0,0.6,0.1,1,0.2,1.4h-2C165.3,214.3,165.3,213.9,165.3,213.3z
				 M165.3,204.2c0-0.4,0-0.9,0-1.4c0-0.3,0-0.3,0.3-0.3h1.3c0.3,0,0.3,0,0.3,0.3v1.4c0,0.3,0,0.3-0.3,0.3h-1.3
				C165.3,204.5,165.3,204.5,165.3,204.2z"/>
			<path d="M170.2,213.3v-9.4c0-0.7-0.1-1.3-0.5-1.9l2.2-0.4v11.8c0,0.6,0.1,1.1,0.2,1.4H170C170.1,214.4,170.2,213.9,170.2,213.3z"
				/>
			<path d="M174.2,212.7c0-1.4,0.9-2.1,2.4-2.3l2-0.2c0-0.4,0-0.7,0-1.1c0-0.8-0.5-1.2-1.4-1.2s-1.8,0.2-2.7,0.7v-1.7
				c0.9-0.4,1.9-0.6,3-0.6c1.8,0,2.8,0.7,2.8,2.4c0,1.4-0.2,3-0.2,4.3c0,0.5,0.2,0.7,0.7,0.7c0.2,0,0.4,0,0.6-0.1v1.1
				c-0.3,0.2-0.7,0.3-1.3,0.3c-1,0-1.6-0.6-1.6-1.7c0-0.6,0-1.2,0-1.9l-1.6,0.2c-0.7,0.1-1.1,0.4-1.1,1c0,0.8,0.5,1.1,1.3,1.1
				c0.5,0,1.1-0.2,1.4-0.3c-0.1,1-0.8,1.6-2.1,1.6C175,214.9,174.2,214,174.2,212.7z"/>
		</g>
	</g>
</g>
<g id="apukirjain_päällä" class="st0">
	<circle class="st1" cx="54.6" cy="128.4" r="11"/>
	<circle class="st1" cx="116.3" cy="213.5" r="11"/>
</g>
<g id="guides" class="st0">
</g>
</svg>
