<?xml version="1.0" standalone="no"?>
<!DOCTYPE svg PUBLIC "-//W3C//DTD SVG 1.1//EN" "http://www.w3.org/Graphics/SVG/1.1/DTD/svg11.dtd" >
<svg xmlns="http://www.w3.org/2000/svg" xmlns:xlink="http://www.w3.org/1999/xlink" version="1.1">
<metadata>
Created by FontForge 20201107 at Thu Jun  7 10:34:32 2018
 By Unknown
\(c\) Copyright 2018 by the Universidad Nacional de C_rdoba [AR]. All rights reserved.
</metadata>
<defs>
<font id="Reforma1918-Blanca" horiz-adv-x="600" >
  <font-face 
    font-family="Reforma 1918 Blanca"
    font-weight="300"
    font-stretch="normal"
    units-per-em="1000"
    panose-1="0 0 4 0 0 0 0 0 0 0"
    ascent="780"
    descent="-220"
    x-height="486"
    cap-height="750"
    bbox="-524 -253 1243 930"
    underline-thickness="38"
    underline-position="-130"
    stemh="34"
    stemv="64"
    unicode-range="U+000D-F8FF"
  />
<missing-glyph horiz-adv-x="550" 
d="M60 730h430v-730h-430v730zM125 695l150 -287l150 287h-300zM253 365l-153 292v-584zM298 365l152 -292v584zM275 322l-150 -287h300z" />
    <glyph glyph-name="f_f" unicode="ff" horiz-adv-x="623" 
d="M484 476v-4h112l-5 -38h-107v-350c0 -43 18 -64 63 -84h-188c44 21 61 44 61 84l-1 350h-242v-350c0 -43 18 -64 63 -84h-188c44 21 61 44 61 84l-1 350h-69l4 38h64v108c0 116 58 185 154 185c41 0 78 -7 102 -13c3 -30 5 -60 8 -90c-39 35 -78 62 -126 62
c-50 0 -76 -34 -76 -87c0 -52 4 -116 4 -165h241v121c0 106 63 187 161 187c30 0 56 -5 79 -11c3 -31 6 -55 9 -84c-37 30 -81 47 -123 47c-38 0 -67 -26 -67 -77c0 -57 7 -130 7 -179z" />
    <glyph glyph-name="f_i" unicode="fi" horiz-adv-x="578" 
d="M352 0c44 21 60 44 60 84v349c-1 0 -3 1 -5 1h-230v-350c0 -43 18 -64 63 -84h-188c44 21 61 44 61 84l-1 350h-69l4 38h64v107c0 125 63 201 168 201c69 0 124 -17 171 -38l-2 -96c-59 55 -115 95 -186 95c-60 0 -88 -44 -88 -112c0 -64 3 -115 3 -157h242l57 25v-413
c0 -40 14 -63 62 -84h-186z" />
    <glyph glyph-name="f_j" unicode="fj" horiz-adv-x="541" 
d="M395 472l57 25v-583c0 -84 -43 -140 -124 -140c-30 0 -55 8 -73 23s-29 35 -29 54c28 -25 58 -37 91 -37c49 0 71 32 71 82v538h-211v-350c0 -43 18 -64 63 -84h-188c44 21 61 44 61 84l-1 350h-69l4 38h64v107c0 125 63 201 168 201c69 0 124 -17 171 -38l-2 -96
c-59 55 -115 95 -186 95c-60 0 -88 -44 -88 -112c0 -64 3 -115 3 -157h218z" />
    <glyph glyph-name="f_l" unicode="fl" horiz-adv-x="579" 
d="M354 0c44 21 60 44 60 84v597c-46 37 -98 60 -152 60c-58 0 -88 -44 -88 -112c0 -64 3 -115 3 -157h145l-5 -38h-140v-350c0 -43 18 -64 63 -84h-188c44 21 61 44 61 84l-1 350h-69l4 38h64v107c0 125 63 201 168 201c54 0 100 -12 140 -26l59 26v-696
c0 -40 14 -63 62 -84h-186z" />
    <glyph glyph-name="f_f_i" unicode="ffi" horiz-adv-x="872" 
d="M646 0c44 21 60 44 60 84v349c-1 0 -3 1 -5 1h-230v-350c0 -43 18 -64 63 -84h-188c44 21 61 44 61 84l-1 350h-229v-350c0 -43 18 -64 63 -84h-188c44 21 61 44 61 84l-1 350h-69l4 38h64v108c0 116 58 185 154 185c41 0 78 -7 102 -13c3 -30 5 -60 8 -90
c-39 35 -78 62 -126 62c-50 0 -76 -34 -76 -87c0 -52 4 -116 4 -165h228v107c0 125 63 201 168 201c69 0 124 -17 171 -38l-2 -96c-59 55 -115 95 -186 95c-60 0 -88 -44 -88 -112c0 -64 3 -115 3 -157h242l57 25v-413c0 -40 14 -63 62 -84h-186z" />
    <glyph glyph-name="f_f_l" unicode="ffl" horiz-adv-x="877" 
d="M652 0c44 21 60 44 60 84v597c-46 37 -98 60 -152 60c-58 0 -88 -44 -88 -112c0 -64 3 -115 3 -157h145l-5 -38h-140v-350c0 -43 18 -64 63 -84h-188c44 21 61 44 61 84l-1 350h-233v-350c0 -43 18 -64 63 -84h-188c44 21 61 44 61 84l-1 350h-69l4 38h64v108
c0 116 58 185 154 185c41 0 78 -7 102 -13c3 -30 5 -60 8 -90c-39 35 -78 62 -126 62c-50 0 -76 -34 -76 -87c0 -52 4 -116 4 -165h232v107c0 125 63 201 168 201c54 0 100 -12 140 -26l59 26v-696c0 -40 14 -63 62 -84h-186z" />
    <glyph glyph-name=".notdef" horiz-adv-x="550" 
d="M60 730h430v-730h-430v730zM125 695l150 -287l150 287h-300zM253 365l-153 292v-584zM298 365l152 -292v584zM275 322l-150 -287h300z" />
    <glyph glyph-name=".null" 
 />
    <glyph glyph-name="CR" unicode="&#xd;" 
 />
    <glyph glyph-name="space" unicode=" " horiz-adv-x="240" 
 />
    <glyph glyph-name="A" unicode="A" horiz-adv-x="728" 
d="M480 0c40 14 75 32 75 57c0 16 -6 33 -17 61l-64 158h-261l-67 -172c-8 -20 -11 -34 -11 -47c0 -27 29 -42 76 -57h-211c55 22 82 53 106 113l196 497c15 37 43 105 56 140h13l52 -131l201 -501c26 -64 55 -98 104 -118h-248zM227 310h234l-117 290h-4z" />
    <glyph glyph-name="B" unicode="B" horiz-adv-x="648" 
d="M325 -6c-55 0 -97 6 -161 6h-93c50 20 66 43 69 72c4 42 5 119 5 215v176c0 86 0 138 -2 203c-1 38 -23 60 -79 84h93c54 0 103 3 154 3c144 0 206 -65 206 -165c0 -98 -54 -139 -114 -186v-1c89 -23 177 -65 177 -189c0 -117 -89 -218 -255 -218zM298 402
c101 0 138 61 138 157c0 103 -40 165 -148 165c-23 0 -40 0 -51 -4c-10 -4 -13 -11 -13 -20l-1 -283c0 -7 2 -10 7 -11c15 -3 39 -4 68 -4zM352 26c54 0 141 29 141 142c0 123 -54 195 -180 205c-26 2 -57 2 -83 2c-4 0 -6 -2 -6 -7v-30c0 -77 0 -199 2 -234
c2 -38 10 -54 42 -66c26 -10 56 -12 84 -12z" />
    <glyph glyph-name="C" unicode="C" horiz-adv-x="755" 
d="M472 -9c-230 0 -392 141 -392 378c0 231 164 391 393 391c94 0 157 -18 218 -42c5 -48 10 -100 17 -154c-58 98 -134 153 -254 153c-165 0 -281 -118 -281 -326c0 -218 125 -350 330 -350c86 0 152 20 216 67c-40 -83 -134 -117 -247 -117z" />
    <glyph glyph-name="D" unicode="D" horiz-adv-x="886" 
d="M400 -8c-84 0 -156 8 -226 8h-107c52 17 74 47 77 82c4 42 5 118 5 256c0 115 1 208 -2 323c-1 43 -24 65 -83 89h102c75 0 151 4 228 4c252 0 412 -137 412 -364c0 -240 -167 -398 -406 -398zM409 22c186 0 305 132 305 331c0 226 -134 368 -358 368
c-53 0 -86 -2 -104 -8c-16 -5 -21 -15 -22 -46c-2 -65 -1 -214 -2 -329c-1 -117 2 -205 6 -253c2 -24 15 -37 37 -44c37 -12 86 -19 138 -19z" />
    <glyph glyph-name="E" unicode="E" horiz-adv-x="564" 
d="M494 -2c-28 1 -51 2 -83 2h-344c60 27 70 49 73 82c4 42 5 118 5 256c0 115 1 203 -2 318c-1 43 -23 64 -79 94h332c27 0 53 2 78 4v-144c-34 69 -51 104 -109 104h-141v-299h150c30 0 54 5 79 14l-10 -106c-16 40 -26 57 -60 57h-159v-42c0 -137 1 -207 5 -256
c4 -33 17 -46 54 -46h108c60 0 81 39 117 108z" />
    <glyph glyph-name="F" unicode="F" horiz-adv-x="529" 
d="M67 0c52 19 70 49 73 82c4 42 5 118 5 256c0 115 1 203 -2 318c-1 43 -23 64 -79 94h331c27 0 51 2 78 6v-146c-34 69 -51 104 -109 104h-140v-299h137c30 0 56 6 79 15l-10 -107c-16 40 -26 57 -60 57h-146v-42c0 -137 1 -208 4 -257c2 -33 18 -62 77 -81h-238z" />
    <glyph glyph-name="G" unicode="G" horiz-adv-x="844" 
d="M581 309h215c-38 -22 -55 -34 -55 -77v-241l-72 48c-4 -3 -8 -5 -13 -8c-44 -23 -107 -40 -185 -40c-217 0 -391 151 -391 378c0 231 160 391 399 391c94 0 170 -16 228 -38c5 -51 9 -101 14 -152c-59 96 -131 148 -255 148c-183 0 -293 -119 -293 -327
c0 -224 140 -350 336 -350c59 0 109 8 153 24c0 41 0 96 -2 160c-1 42 -23 60 -79 84z" />
    <glyph glyph-name="H" unicode="H" horiz-adv-x="868" 
d="M724 75c3 -34 23 -57 76 -75h-238c52 17 70 39 73 72c4 42 5 128 5 266v29h-416v-29c0 -137 1 -214 5 -263c3 -34 23 -57 76 -75h-238c52 17 70 39 73 72c4 42 5 128 5 266c0 115 1 213 -2 328c-1 43 -23 60 -79 84h245c-62 -24 -85 -41 -85 -84v-262h416
c0 87 0 167 -2 262c-1 43 -23 60 -79 84h245c-62 -24 -85 -41 -85 -84v-328c0 -137 1 -214 5 -263z" />
    <glyph glyph-name="I" unicode="I" horiz-adv-x="373" 
d="M67 0c52 17 70 39 73 72c4 42 5 128 5 266c0 115 1 213 -2 328c-1 43 -23 60 -79 84h245c-62 -24 -85 -41 -85 -84v-328c0 -137 1 -214 5 -263c3 -34 23 -57 76 -75h-238z" />
    <glyph glyph-name="J" unicode="J" horiz-adv-x="356" 
d="M52 -190c18 16 33 31 44 47c28 37 39 91 40 135v471c0 86 0 138 -2 203c-1 38 -23 60 -79 84h245c-62 -24 -84 -46 -85 -84c-2 -115 -2 -229 -2 -344c0 -137 4 -275 4 -363c0 -89 -66 -129 -165 -149z" />
    <glyph glyph-name="J.ss02" horiz-adv-x="372" 
d="M80 -33c18 16 33 31 45 47c27 37 38 91 38 135l1 314c0 86 0 138 -2 203c-1 38 -23 60 -79 84h245c-62 -24 -84 -46 -85 -84c-2 -115 -2 -209 -2 -284c0 -77 4 -174 4 -276c0 -89 -66 -129 -165 -139z" />
    <glyph glyph-name="K" unicode="K" horiz-adv-x="696" 
d="M67 0c52 17 70 39 73 72c4 42 5 128 5 266c0 115 1 213 -2 328c-1 43 -23 60 -79 84h245c-62 -24 -85 -41 -85 -84v-328c0 -137 1 -214 5 -263c3 -34 23 -57 76 -75h-238zM464 0c23 13 36 28 36 49c0 26 -20 52 -43 78l-225 261l261 261c20 20 28 31 28 50
c0 21 -19 35 -56 51h239c-68 -35 -106 -72 -157 -118l-237 -216l244 -285c43 -50 90 -94 147 -131h-237z" />
    <glyph glyph-name="K.ss03" horiz-adv-x="696" 
d="M67 0c52 17 70 39 73 72c4 42 5 128 5 266c0 115 1 213 -2 328c-1 43 -23 60 -79 84h245c-62 -24 -85 -41 -85 -84v-328c0 -137 1 -214 5 -263c3 -34 23 -57 76 -75h-238zM932 -191c-51 0 -153 15 -201 30c-189 58 -300 252 -489 537l240 273c17 20 27 35 27 53
c0 23 -26 33 -56 48h234c-66 -35 -103 -70 -149 -118l-224 -237c203 -293 348 -497 618 -586z" />
    <glyph glyph-name="L" unicode="L" horiz-adv-x="553" 
d="M499 -2c-28 1 -51 2 -83 2h-349c52 17 70 39 73 72c4 42 5 128 5 266c0 115 1 213 -2 328c-1 43 -23 60 -79 84h245c-62 -24 -85 -41 -85 -84v-328c0 -85 2 -226 5 -256c3 -34 17 -46 54 -46h113c60 0 81 39 117 108z" />
    <glyph glyph-name="M" unicode="M" horiz-adv-x="1028" 
d="M68 0c46 17 68 46 72 100c13 174 25 346 34 521c2 37 5 81 9 137h17l317 -634h3l300 634h17c3 -44 5 -87 8 -131c12 -170 22 -360 31 -510c4 -65 21 -98 84 -117h-223c50 21 62 47 59 99l-22 440h-4l-262 -530h-15l-272 539h-4l-25 -447c-3 -58 12 -88 67 -101h-191z" />
    <glyph glyph-name="N" unicode="N" horiz-adv-x="925" 
d="M756 -8l-568 613h-4v-504c0 -56 22 -86 81 -101h-197c48 19 70 48 70 100c1 174 5 346 6 521v137h20l569 -618h4v509c0 61 -32 83 -91 101h211c-51 -18 -70 -41 -71 -100c-2 -132 -6 -372 -6 -511v-147h-24z" />
    <glyph glyph-name="O" unicode="O" horiz-adv-x="937" 
d="M468 -8c-209 0 -388 143 -388 372c0 223 157 396 388 396c217 0 389 -152 389 -378c0 -225 -170 -390 -389 -390zM488 33c180 0 276 145 276 327c0 200 -125 357 -313 357c-178 0 -278 -145 -278 -331c0 -198 123 -353 315 -353z" />
    <glyph glyph-name="P" unicode="P" horiz-adv-x="629" 
d="M71 0c52 21 66 43 69 72c4 44 5 116 5 325c0 86 0 204 -2 269c-1 38 -23 60 -79 84h113c45 0 102 3 153 3c155 0 251 -76 251 -214c0 -144 -108 -235 -235 -235c-18 0 -38 3 -54 9c-14 6 -24 15 -31 28c20 -5 42 -7 63 -7c106 0 173 68 173 177c0 123 -66 210 -194 210
c-21 0 -48 -2 -65 -5c-9 -2 -14 -8 -14 -19c1 -101 2 -202 2 -304c1 -106 0 -222 3 -318c1 -35 24 -57 80 -75h-238z" />
    <glyph glyph-name="Q" unicode="Q" horiz-adv-x="937" 
d="M961 -153c25 0 48 2 70 4c-14 -20 -30 -35 -53 -47s-55 -21 -90 -21c-145 0 -256 103 -366 212c-18 -2 -36 -3 -54 -3c-209 0 -388 143 -388 372c0 223 157 396 388 396c217 0 389 -152 389 -378c0 -181 -110 -324 -268 -372c105 -86 223 -163 372 -163zM173 386
c0 -198 123 -353 315 -353c180 0 276 145 276 327c0 200 -125 357 -313 357c-178 0 -278 -145 -278 -331z" />
    <glyph glyph-name="Q.ss04" horiz-adv-x="937" 
d="M1066 -198c49 0 93 7 135 16c-15 -21 -38 -38 -70 -51s-73 -20 -121 -20c-196 0 -361 111 -542 245c-209 0 -388 143 -388 372c0 223 157 396 388 396c217 0 389 -152 389 -378c0 -195 -127 -344 -303 -381c199 -119 373 -199 512 -199zM173 386
c0 -198 123 -353 315 -353c180 0 276 145 276 327c0 200 -125 357 -313 357c-178 0 -278 -145 -278 -331z" />
    <glyph glyph-name="R" unicode="R" horiz-adv-x="706" 
d="M71 0c52 21 66 43 69 72c4 42 5 119 5 215v176c0 86 0 138 -2 203c-1 38 -23 60 -79 84h113c45 0 87 3 138 3c147 0 246 -66 246 -190c0 -102 -48 -159 -128 -219c73 -103 139 -194 191 -255c39 -45 67 -67 104 -89h-133c-22 0 -24 1 -34 14c-28 39 -58 88 -95 149
s-81 124 -100 152c-3 4 -7 6 -13 6l-129 1c0 -137 1 -198 5 -247c3 -34 24 -57 80 -75h-238zM337 352c98 0 140 67 140 164c0 125 -56 205 -177 205c-21 0 -45 -2 -62 -5c-9 -2 -14 -8 -14 -19v-318c0 -6 3 -10 8 -12c28 -10 64 -15 105 -15z" />
    <glyph glyph-name="R.ss03" horiz-adv-x="706" 
d="M71 0c51 21 66 43 69 72c4 42 4 119 4 215l1 176c0 86 -1 138 -2 203c-1 38 -24 60 -79 84h113c45 0 86 3 137 3c148 0 246 -67 246 -193c0 -100 -48 -157 -128 -216c163 -236 286 -443 561 -535c-23 0 -66 3 -100 8c-41 6 -76 13 -104 22c-197 64 -288 264 -424 476
c-2 4 -6 6 -12 6l-129 1c0 -132 0 -195 5 -247c2 -34 24 -57 80 -75h-238zM337 352c98 0 139 67 139 164c0 125 -55 205 -176 205c-21 0 -45 -2 -63 -5c-9 -2 -14 -8 -14 -19l1 -318c0 -9 5 -11 8 -12c28 -10 64 -15 105 -15z" />
    <glyph glyph-name="S" unicode="S" horiz-adv-x="540" 
d="M231 -8c-47 0 -93 6 -135 25c-13 6 -16 12 -16 24c0 18 5 81 8 134c26 -103 72 -148 165 -148c91 0 144 48 143 131c-1 80 -66 132 -138 187c-78 61 -161 129 -161 237s80 179 206 179c73 0 114 -17 137 -17v-136c-23 76 -66 118 -155 118c-74 0 -123 -38 -122 -118
c1 -79 79 -131 155 -192c76 -58 150 -126 150 -227c0 -120 -91 -197 -237 -197z" />
    <glyph glyph-name="T" unicode="T" horiz-adv-x="678" 
d="M222 0c52 17 70 39 73 72c4 42 5 128 5 266c0 111 0 262 -2 376h-170c-58 0 -81 -35 -115 -116l6 156c27 -2 51 -4 78 -4h490c27 0 51 2 78 4l-6 -156c-34 81 -45 116 -103 116h-177v-376c0 -137 1 -214 5 -263c3 -34 23 -57 76 -75h-238z" />
    <glyph glyph-name="T.ss06" horiz-adv-x="460" 
d="M113 0c52 17 70 39 73 72c4 42 5 128 5 421c0 111 0 262 -2 376h-230c-58 0 -81 -35 -115 -116l6 156c27 -2 51 -4 78 -4h610c27 0 51 2 78 4l-6 -156c-34 81 -45 116 -103 116h-237v-376c0 -292 1 -369 5 -418c3 -34 23 -57 76 -75h-238z" />
    <glyph glyph-name="U" unicode="U" horiz-adv-x="852" 
d="M435 -8c-159 0 -290 77 -290 261c0 161 1 299 -2 413c-1 43 -23 60 -79 84h254c-70 -20 -90 -41 -90 -84v-408c0 -149 95 -223 227 -223s223 68 222 214c-1 136 -2 276 -2 417c0 45 -30 65 -94 84h215c-65 -24 -80 -41 -80 -84v-415c0 -180 -122 -259 -281 -259z" />
    <glyph glyph-name="V" unicode="V" horiz-adv-x="701" 
d="M343 0l-52 131l-201 501c-26 64 -47 100 -98 118h213c-34 -12 -50 -28 -50 -53c0 -16 6 -37 17 -65l196 -492h4l196 506c8 20 11 37 11 50c0 25 -22 39 -66 54h196c-55 -22 -73 -50 -97 -110l-196 -500c-15 -37 -43 -105 -56 -140h-17z" />
    <glyph glyph-name="W" unicode="W" horiz-adv-x="1104" 
d="M292 0c-11 41 -29 103 -40 139l-146 493c-20 67 -42 100 -94 118h225c-36 -12 -61 -27 -61 -57c0 -15 4 -35 12 -61l140 -482h4l181 486c14 37 26 71 37 108h26c14 -36 27 -77 41 -113l188 -491h4l142 506c5 17 7 31 7 43c0 28 -31 42 -78 61h212
c-54 -19 -78 -42 -97 -110l-142 -500c-11 -37 -27 -95 -40 -140h-44c-12 44 -27 87 -44 131l-178 453h-5l-166 -439c-14 -37 -32 -100 -46 -145h-38z" />
    <glyph glyph-name="X" unicode="X" horiz-adv-x="713" 
d="M483 0c32 10 53 19 53 36c0 12 -8 23 -16 35l-183 259l-192 -265c-7 -9 -13 -17 -13 -28c0 -16 22 -26 60 -37h-204c55 15 75 29 97 59l225 309l-222 314c-27 36 -47 58 -98 68h228c-27 -6 -44 -18 -44 -34c0 -9 3 -18 14 -34l173 -244l180 247c7 9 11 16 11 26
c0 15 -24 25 -66 39h205c-49 -13 -73 -30 -97 -64l-206 -285l239 -337c21 -30 49 -51 98 -64h-242z" />
    <glyph glyph-name="Y" unicode="Y" horiz-adv-x="590" 
d="M183 0c52 17 70 39 73 72c4 47 5 99 5 175v73c-9 21 -21 46 -29 60l-164 292c-18 31 -36 56 -80 78h186c-25 -10 -35 -24 -35 -41c0 -10 3 -20 9 -31l169 -306h4l161 308c5 10 8 19 8 28c0 18 -13 32 -44 42h160c-46 -15 -63 -39 -81 -73l-185 -340c0 -135 1 -203 5 -262
c2 -34 23 -57 76 -75h-238z" />
    <glyph glyph-name="Z" unicode="Z" horiz-adv-x="612" 
d="M582 -2c-28 1 -51 2 -83 2h-477l455 714h-342c-60 0 -78 -20 -119 -114v154c25 -2 51 -4 78 -4h486l-445 -714h334c70 0 91 39 127 118z" />
    <glyph glyph-name="a" unicode="a" horiz-adv-x="496" 
d="M176 -8c-74 0 -124 41 -124 111c0 76 59 103 131 118l127 26c2 28 4 65 4 106c0 61 -28 89 -95 89c-63 0 -114 -20 -160 -66c0 26 7 49 20 66c26 35 78 55 144 55c100 0 154 -44 154 -135c0 -88 -10 -190 -10 -274c0 -27 13 -44 41 -44c24 0 39 8 52 21
c0 -19 -5 -37 -16 -50c-12 -14 -31 -23 -58 -23c-48 0 -78 32 -78 84c0 79 1 109 1 135l-128 -15c-40 -5 -69 -21 -69 -65c0 -57 40 -87 94 -87c45 0 77 11 101 32c-19 -49 -57 -84 -131 -84z" />
    <glyph glyph-name="b" unicode="b" horiz-adv-x="564" 
d="M268 -8c-65 0 -114 15 -170 42v632c-18 21 -37 41 -55 62l119 52v-710c29 -28 69 -44 113 -44c99 0 172 78 172 208c0 125 -55 203 -161 203c-46 0 -92 -12 -124 -37c24 65 85 97 152 97c124 0 194 -93 194 -245c0 -144 -95 -260 -240 -260z" />
    <glyph glyph-name="c" unicode="c" horiz-adv-x="460" 
d="M288 -8c-126 0 -232 81 -232 244c0 166 106 261 238 261c55 0 99 -12 134 -27c3 -28 7 -56 10 -84c-45 45 -101 76 -163 76c-93 0 -147 -84 -147 -190c0 -141 67 -229 185 -229c56 0 99 15 131 34c-15 -60 -82 -85 -156 -85z" />
    <glyph glyph-name="d" unicode="d" horiz-adv-x="597" 
d="M269 -8c-125 0 -213 84 -213 246c0 157 97 258 230 258c54 0 88 -11 119 -29v199c-18 21 -37 41 -55 62l121 52l-5 -542v-152c0 -27 15 -42 41 -42c21 0 36 6 50 21c0 -19 -4 -35 -13 -47c-12 -17 -32 -26 -61 -26c-48 0 -78 32 -78 85v355c-29 14 -67 26 -116 26
c-105 0 -162 -95 -162 -206c0 -131 67 -213 170 -213c47 0 80 13 108 37c-20 -52 -67 -84 -136 -84z" />
    <glyph glyph-name="e" unicode="e" horiz-adv-x="510" 
d="M288 -8c-146 0 -232 96 -232 243c0 153 91 262 221 262c112 0 182 -67 182 -193c0 -7 -1 -14 -1 -21h-332c-1 -9 -1 -18 -1 -26c0 -118 60 -211 183 -211c62 0 104 15 142 35c-5 -22 -17 -40 -34 -55c-27 -22 -69 -34 -128 -34zM127 303l258 12c-1 82 -44 143 -126 143
s-125 -74 -132 -155z" />
    <glyph glyph-name="f" unicode="f" horiz-adv-x="321" 
d="M182 476v-4h112l-5 -38h-107v-350c0 -43 18 -64 63 -84h-188c44 21 61 44 61 84l-1 350h-74l4 38h69v121c0 106 63 187 161 187c30 0 56 -5 79 -11c3 -31 6 -55 9 -84c-37 30 -81 47 -123 47c-38 0 -67 -26 -67 -77c0 -57 7 -130 7 -179z" />
    <glyph glyph-name="g" unicode="g" horiz-adv-x="486" 
d="M297 58c82 -15 169 -35 169 -129c0 -87 -97 -155 -242 -155c-103 0 -184 46 -184 123c0 76 61 116 144 116c-45 -19 -80 -49 -80 -101c0 -65 55 -104 142 -104c101 0 159 51 159 106c0 64 -80 77 -159 88c-78 11 -155 27 -155 98c0 44 38 78 91 79
c-68 19 -121 74 -121 154c0 100 82 164 172 164c32 0 64 -9 91 -25h134l-5 -38h-84c23 -27 37 -62 37 -101c0 -99 -84 -161 -173 -161c-14 0 -27 1 -40 4c-27 -10 -43 -30 -43 -57c0 -45 71 -49 147 -61zM128 338c0 -85 44 -135 105 -135c65 0 109 46 109 118
c0 84 -47 138 -107 138c-67 0 -107 -47 -107 -121z" />
    <glyph glyph-name="h" unicode="h" horiz-adv-x="572" 
d="M35 0c44 21 60 44 60 84v582c-18 21 -37 41 -55 62l119 52v-696c0 -40 14 -63 62 -84h-186zM336 0c44 21 60 44 60 84v240c0 71 -34 111 -107 111c-49 0 -92 -12 -130 -35c32 58 82 97 158 97c93 0 145 -60 145 -150v-263c0 -40 14 -63 62 -84h-188z" />
    <glyph glyph-name="i" unicode="i" horiz-adv-x="270" 
d="M128 611c-25 0 -52 26 -52 51c0 24 27 53 52 53c24 0 52 -28 52 -53c0 -24 -26 -51 -52 -51zM44 0c44 21 60 44 60 84v299c-18 21 -37 41 -55 62l119 52v-413c0 -40 14 -63 62 -84h-186z" />
    <glyph glyph-name="j" unicode="j" horiz-adv-x="298" 
d="M157 611c-25 0 -52 26 -52 51c0 24 27 53 52 53c24 0 52 -28 52 -53c0 -24 -26 -51 -52 -51zM66 -226c-30 0 -55 8 -73 23s-29 35 -29 54c28 -25 58 -37 91 -37c49 0 71 32 71 82v487c-18 21 -37 41 -55 62l119 52v-583c0 -84 -43 -140 -124 -140z" />
    <glyph glyph-name="k" unicode="k" horiz-adv-x="523" 
d="M35 0c44 21 60 44 60 84v582c-18 21 -37 41 -55 62l119 52v-696c0 -40 14 -63 62 -84h-186zM326 0c23 12 36 21 36 36c0 17 -11 29 -26 46l-169 182l175 151c13 11 22 20 22 32c0 15 -18 27 -48 39h198c-48 -23 -85 -48 -120 -76l-163 -129l182 -196
c30 -32 67 -61 110 -85h-197z" />
    <glyph glyph-name="l" unicode="l" horiz-adv-x="260" 
d="M35 0c44 21 60 44 60 84v582c-18 21 -37 41 -55 62l119 52v-696c0 -40 14 -63 62 -84h-186z" />
    <glyph glyph-name="m" unicode="m" horiz-adv-x="881" 
d="M53 445l119 52v-413c0 -40 14 -63 62 -84h-186c44 21 60 44 60 84v299c-18 21 -37 41 -55 62zM645 0c44 21 60 44 60 84v240c0 71 -34 111 -107 111c-49 0 -92 -12 -130 -35c5 -16 7 -34 7 -53v-263c0 -40 14 -63 62 -84h-188c44 21 60 44 60 84v240
c0 71 -34 111 -107 111c-49 0 -92 -12 -130 -35c32 58 82 97 158 97c73 0 121 -37 138 -97c32 58 82 97 158 97c93 0 145 -60 145 -150v-263c0 -40 14 -63 62 -84h-188z" />
    <glyph glyph-name="n" unicode="n" horiz-adv-x="585" 
d="M48 0c44 21 60 44 60 84v299c-18 21 -37 41 -55 62l119 52v-413c0 -40 14 -63 62 -84h-186zM349 0c44 21 60 44 60 84v240c0 71 -34 111 -107 111c-49 0 -92 -12 -130 -35c32 58 82 97 158 97c93 0 145 -60 145 -150v-263c0 -40 14 -63 62 -84h-188z" />
    <glyph glyph-name="o" unicode="o" horiz-adv-x="574" 
d="M290 -8c-133 0 -234 97 -234 247c0 157 110 257 232 257c130 0 230 -97 230 -252c0 -150 -103 -252 -228 -252zM299 29c86 0 142 80 142 189c0 117 -52 239 -161 239c-90 0 -147 -86 -147 -199c0 -132 67 -229 166 -229z" />
    <glyph glyph-name="p" unicode="p" horiz-adv-x="560" 
d="M35 -220c44 21 58 44 58 84v519l-57 62l121 52v-439c34 -18 77 -27 121 -27c105 0 163 84 163 207c0 129 -66 204 -166 204c-47 0 -87 -10 -118 -32c20 51 73 87 142 87c113 0 205 -82 205 -245c0 -156 -97 -260 -228 -260c-44 0 -88 13 -119 38v-166
c0 -40 16 -63 64 -84h-186z" />
    <glyph glyph-name="q" unicode="q" horiz-adv-x="590" 
d="M348 -220c54 25 57 52 57 109v543c-27 14 -66 25 -109 25c-113 0 -174 -96 -174 -225s82 -193 164 -193c49 0 90 17 119 37c-16 -54 -65 -84 -140 -84c-123 0 -209 92 -209 244c0 158 106 261 244 261c72 0 127 -16 173 -35v-573c0 -57 0 -84 62 -109h-187z" />
    <glyph glyph-name="r" unicode="r" horiz-adv-x="376" 
d="M48 0c49 21 59 44 59 84v299c-18 21 -37 41 -55 62l119 52v-413c0 -40 14 -63 66 -84h-189zM360 400c-26 19 -57 31 -92 31c-34 0 -63 -10 -97 -31c29 60 80 97 141 97c15 0 27 -2 36 -4z" />
    <glyph glyph-name="s" unicode="s" horiz-adv-x="436" 
d="M215 -8c-78 0 -140 28 -149 94c-1 9 -2 18 -1 28c43 -54 93 -77 158 -77c60 0 101 29 101 79c0 29 -41 46 -90 66c-75 30 -170 69 -170 171c0 95 72 144 153 144c83 0 140 -35 147 -94c1 -7 1 -16 0 -24c-41 47 -91 67 -155 67c-57 0 -99 -31 -99 -81
c0 -33 45 -52 97 -74c75 -32 165 -71 165 -166c0 -81 -64 -133 -157 -133z" />
    <glyph glyph-name="t" unicode="t" horiz-adv-x="376" 
d="M238 -8c-80 0 -130 47 -129 135l2 307h-67l130 133v-95h174l-5 -38h-170v-308c0 -53 31 -82 82 -82c41 0 72 11 97 27c-7 -53 -51 -79 -114 -79z" />
    <glyph glyph-name="u" unicode="u" horiz-adv-x="612" 
d="M266 -8c-101 0 -157 58 -157 152v241c-17 20 -36 40 -53 60l121 52v-344c0 -73 35 -109 112 -109c44 0 90 11 127 45c-19 -67 -80 -97 -150 -97zM494 -8c-48 0 -78 34 -78 83c0 42 1 85 1 129v181c-17 20 -36 40 -53 60l121 52c-1 -73 -2 -131 -4 -189
c-3 -85 -4 -203 -4 -220c0 -27 13 -44 41 -44c22 0 37 7 50 18c0 -22 -7 -40 -21 -53c-12 -11 -30 -17 -53 -17z" />
    <glyph glyph-name="v" unicode="v" horiz-adv-x="499" 
d="M209 0c0 30 -5 60 -20 98l-128 319l-41 69h141l-31 -52l133 -352h3l142 352l-45 52h120l-39 -65l-137 -328c-10 -25 -18 -65 -18 -93h-80z" />
    <glyph glyph-name="w" unicode="w" horiz-adv-x="772" 
d="M624 486h120l-39 -65l-110 -328c-8 -25 -19 -65 -19 -93h-78c0 30 -7 60 -21 98l-93 246l-97 -251c-10 -25 -19 -65 -19 -93h-78c0 30 -9 60 -21 98l-100 319l-41 69h141l-31 -52l107 -352h4l117 310l-9 25l-41 69h137l-31 -52l131 -352h4l112 352z" />
    <glyph glyph-name="x" unicode="x" horiz-adv-x="487" 
d="M278 252l158 -213l41 -39h-153l35 39l-125 167l-134 -171c18 -10 39 -23 59 -35h-151l43 37l161 198l-159 212l-45 39h153c-10 -12 -19 -25 -29 -37l126 -169l130 170c-17 11 -36 24 -55 36h146l-43 -37z" />
    <glyph glyph-name="y" unicode="y" horiz-adv-x="464" 
d="M106 -226c-27 0 -52 7 -71 20c-22 15 -37 40 -43 76c39 -27 74 -36 113 -36c79 0 110 66 120 140l-172 443l-45 69h155c-14 -17 -27 -35 -41 -52l134 -368h4l135 368l-55 52h132l-41 -65l-135 -344c-16 -40 -27 -84 -38 -136c-20 -95 -52 -167 -152 -167z" />
    <glyph glyph-name="z" unicode="z" horiz-adv-x="483" 
d="M39 0l306 446h-202c-51 0 -74 -41 -107 -91l14 131h401l-309 -448h210c52 0 71 41 96 89l-12 -127h-397z" />
    <glyph glyph-name="quotesingle" unicode="'" horiz-adv-x="228" 
d="M114 493c-17 95 -43 175 -43 204c0 30 21 64 43 64c21 0 43 -34 43 -64c0 -29 -25 -109 -43 -204z" />
    <glyph glyph-name="quotedbl" unicode="&#x22;" horiz-adv-x="378" 
d="M114 493c-17 95 -43 175 -43 204c0 30 21 64 43 64c21 0 43 -34 43 -64c0 -29 -25 -109 -43 -204zM264 493c-17 95 -43 175 -43 204c0 30 21 64 43 64c21 0 43 -34 43 -64c0 -29 -25 -109 -43 -204z" />
    <glyph glyph-name="numbersign" unicode="#" horiz-adv-x="679" 
d="M632 444h-134l-47 -216h134l-8 -37h-134l-42 -191h-63l42 191h-156l-42 -191h-63l42 191h-121l8 37h122l48 216h-124l8 36h124l40 182h61l-40 -182h158l40 182h61l-40 -182h133zM389 228l48 216h-158l-47 -216h157z" />
    <glyph glyph-name="ampersand" unicode="&#x26;" horiz-adv-x="667" 
d="M601 53c15 -19 33 -37 53 -53h-112c-6 17 -13 30 -26 49c-8 11 -16 22 -24 34c-50 -57 -112 -95 -220 -95c-124 0 -216 73 -216 196c0 108 70 168 162 210c-55 62 -93 115 -93 196c0 89 75 171 171 171c95 0 166 -57 166 -145c0 -94 -78 -163 -170 -209
c86 -75 158 -160 220 -240c11 39 13 80 13 114c0 43 -12 83 -28 116c24 -2 45 -8 61 -19c18 -13 34 -37 34 -68c0 -62 -22 -121 -57 -171c23 -31 45 -59 66 -86zM296 723c-61 0 -105 -51 -105 -129c0 -62 37 -124 89 -172c72 38 120 102 120 184c0 79 -43 117 -104 117z
M302 26c78 0 137 24 177 74c-67 92 -155 195 -245 278c-74 -41 -113 -97 -113 -175c0 -103 86 -177 181 -177z" />
    <glyph glyph-name="asterisk" unicode="*" horiz-adv-x="500" 
d="M124 399l-9 8l87 148l-136 80l6 12l148 -37l20 151h15l22 -151l152 37l5 -12l-140 -80l90 -149l-10 -8l-126 122z" />
    <glyph glyph-name="comma" unicode="," horiz-adv-x="250" 
d="M55 -142c44 39 70 77 67 124c-2 33 -54 33 -54 78c0 29 23 53 51 53c34 0 61 -30 61 -84c0 -91 -66 -150 -125 -171z" />
    <glyph glyph-name="hyphen" unicode="-" horiz-adv-x="336" 
d="M44 227l5 56c61 4 197 19 243 31l-5 -55c-66 -4 -197 -19 -243 -32z" />
    <glyph glyph-name="softhyphen" unicode="&#xad;" horiz-adv-x="336" 
d="M44 227l5 56c61 4 197 19 243 31l-5 -55c-66 -4 -197 -19 -243 -32z" />
    <glyph glyph-name="period" unicode="." horiz-adv-x="250" 
d="M126 -18c-33 0 -55 33 -55 56c0 26 26 52 53 52s55 -28 55 -55c0 -26 -24 -53 -53 -53z" />
    <glyph glyph-name="colon" unicode=":" horiz-adv-x="250" 
d="M126 306c-33 0 -55 33 -55 56c0 26 26 52 53 52s55 -28 55 -55c0 -26 -24 -53 -53 -53zM126 -18c-33 0 -55 33 -55 56c0 26 26 52 53 52s55 -28 55 -55c0 -26 -24 -53 -53 -53z" />
    <glyph glyph-name="semicolon" unicode=";" horiz-adv-x="250" 
d="M119 306c-33 0 -55 33 -55 56c0 26 26 52 53 52s55 -28 55 -55c0 -26 -24 -53 -53 -53zM54 -142c44 39 70 77 67 124c-2 33 -54 33 -54 78c0 29 23 53 51 53c34 0 61 -30 61 -84c0 -91 -66 -150 -125 -171z" />
    <glyph glyph-name="question" unicode="?" horiz-adv-x="484" 
d="M274 174c-53 4 -101 34 -101 81c0 117 217 194 217 333c0 92 -52 154 -152 154c-81 0 -136 -42 -187 -124l12 121c45 25 102 41 174 41c134 0 227 -70 227 -199c0 -153 -228 -238 -228 -339c0 -27 14 -49 38 -68zM229 -18c-33 0 -55 33 -55 56c0 26 26 52 53 52
s55 -28 55 -55c0 -26 -24 -53 -53 -53z" />
    <glyph glyph-name="exclam" unicode="!" horiz-adv-x="348" 
d="M167 165c-26 172 -38 302 -38 425c0 64 4 120 14 180h63c10 -60 14 -116 14 -180c0 -123 -13 -253 -39 -425h-14zM175 -18c-33 0 -55 33 -55 56c0 26 26 52 53 52s55 -28 55 -55c0 -26 -24 -53 -53 -53z" />
    <glyph glyph-name="questiondown" unicode="&#xbf;" horiz-adv-x="484" 
d="M259 572c33 0 55 -33 55 -56c0 -26 -26 -52 -53 -52s-55 28 -55 55c0 26 24 53 53 53zM214 380c53 -4 101 -34 101 -81c0 -117 -217 -194 -217 -333c0 -92 52 -154 152 -154c81 0 136 42 187 124l-12 -121c-45 -25 -102 -41 -174 -41c-134 0 -227 70 -227 199
c0 153 228 238 228 339c0 27 -14 49 -38 68z" />
    <glyph glyph-name="exclamdown" unicode="&#xa1;" horiz-adv-x="348" 
d="M173 568c33 0 55 -33 55 -56c0 -26 -26 -52 -53 -52s-55 28 -55 55c0 26 24 53 53 53zM181 385c26 -172 38 -302 38 -425c0 -64 -4 -120 -14 -180h-63c-10 60 -14 116 -14 180c0 123 13 253 39 425h14z" />
    <glyph glyph-name="at" unicode="@" horiz-adv-x="963" 
d="M452 -175c-214 0 -372 123 -372 349c0 274 201 477 466 477c224 0 349 -150 349 -344c0 -191 -121 -315 -259 -315c-48 0 -77 23 -77 71c0 24 42 279 42 326c0 38 -19 59 -70 59c-109 0 -179 -141 -179 -283c0 -84 38 -121 103 -121c37 0 73 11 105 32
c-28 -52 -76 -84 -150 -84c-76 0 -135 49 -135 152c0 175 101 353 286 353c74 0 111 -32 111 -84s-49 -288 -49 -348c0 -28 15 -43 39 -43c94 0 173 110 173 267c0 177 -90 327 -309 327c-217 0 -379 -184 -379 -430c0 -215 141 -320 335 -320c82 0 150 13 212 36
c-17 -22 -43 -39 -75 -51c-45 -18 -103 -26 -167 -26z" />
    <glyph glyph-name="parenleft" unicode="(" horiz-adv-x="404" 
d="M337 -196c-170 97 -285 264 -285 500c0 226 121 381 285 481l11 -7c-124 -115 -208 -258 -208 -477c0 -224 84 -383 208 -487z" />
    <glyph glyph-name="parenright" unicode=")" horiz-adv-x="404" 
d="M67 -196l-11 10c124 104 208 263 208 487c0 219 -84 362 -208 477l11 7c164 -100 285 -255 285 -481c0 -236 -115 -403 -285 -500z" />
    <glyph glyph-name="bracketleft" unicode="[" horiz-adv-x="365" 
d="M114 -209c5 169 8 338 8 506c0 161 -3 322 -8 483h155v-28h-79c5 -155 8 -311 8 -466c0 -156 -3 -312 -8 -467h79v-28h-155z" />
    <glyph glyph-name="bracketright" unicode="]" horiz-adv-x="365" 
d="M251 -209h-155v28h79c-5 155 -8 311 -8 467c0 155 3 311 8 466h-79v28h155c-5 -161 -8 -322 -8 -483c0 -168 3 -337 8 -506z" />
    <glyph glyph-name="braceleft" unicode="{" horiz-adv-x="387" 
d="M251 -209c-85 0 -136 28 -136 87c0 97 41 239 41 327c0 59 -7 85 -51 85h-5v21h5c44 0 51 29 51 85c0 65 -41 229 -41 296c0 59 51 88 134 88h6l-9 -5c-12 -6 -26 -18 -32 -28c-11 -18 -16 -40 -16 -66c0 -67 29 -217 29 -274c0 -55 -24 -84 -61 -103v-4
c40 -15 61 -47 61 -100c0 -86 -29 -241 -29 -321c0 -23 4 -40 13 -55c8 -13 20 -22 37 -30l7 -3h-4z" />
    <glyph glyph-name="braceright" unicode="}" horiz-adv-x="395" 
d="M144 -209h-4l7 3c17 8 29 17 37 30c9 15 13 32 13 55c0 80 -29 235 -29 321c0 53 21 85 61 100v4c-37 19 -61 48 -61 103c0 57 29 207 29 274c0 26 -5 48 -16 66c-6 10 -20 22 -32 28l-9 5h6c83 0 134 -29 134 -88c0 -67 -41 -231 -41 -296c0 -56 7 -85 51 -85h5v-21h-5
c-44 0 -51 -26 -51 -85c0 -88 41 -230 41 -327c0 -59 -51 -87 -136 -87z" />
    <glyph glyph-name="backslash" unicode="\" horiz-adv-x="441" 
d="M308 -190l-240 940h66l240 -940h-66z" />
    <glyph glyph-name="slash" unicode="/" horiz-adv-x="441" 
d="M67 -190l240 940h66l-240 -940h-66z" />
    <glyph glyph-name="brokenbar" unicode="&#xa6;" horiz-adv-x="265" 
d="M100 386v364h65v-364h-65zM100 -190v364h65v-364h-65z" />
    <glyph glyph-name="bar" unicode="|" horiz-adv-x="265" 
d="M100 -190v940h65v-940h-65z" />
    <glyph glyph-name="asciicircum" unicode="^" 
d="M40 376l209 379c14 4 33 6 51 6c20 0 36 -2 51 -6l209 -379h-31l-229 317l-229 -317h-31z" />
    <glyph glyph-name="underscore" unicode="_" 
d="M20 -131v37h560v-37h-560z" />
    <glyph glyph-name="asciitilde" unicode="~" horiz-adv-x="700" 
d="M56 204c0 79 49 127 120 127c95 0 276 -78 355 -78c57 0 96 32 113 69c0 -71 -44 -123 -114 -123c-95 0 -284 78 -357 78c-54 0 -87 -27 -117 -73z" />
    <glyph glyph-name="section" unicode="&#xa7;" horiz-adv-x="566" 
d="M210 -227c-48 0 -95 6 -138 24c-13 5 -16 11 -16 22c0 17 5 77 8 127c26 -98 73 -140 168 -140c93 0 147 45 146 124c-1 75 -67 124 -141 176c-79 57 -164 121 -164 223c0 69 37 121 100 148c-25 33 -41 71 -41 115c0 102 82 169 210 169c75 0 116 -16 140 -16v-128
c-24 71 -67 111 -158 111c-76 0 -126 -36 -125 -111s81 -124 158 -181c78 -55 153 -119 153 -214c0 -70 -34 -124 -95 -155c22 -32 36 -67 36 -108c0 -113 -93 -186 -241 -186zM391 95c31 21 47 55 46 98c-1 75 -67 124 -141 176c-34 25 -71 52 -101 83
c-34 -17 -56 -49 -55 -98c1 -75 81 -124 158 -181c34 -24 67 -49 93 -78z" />
    <glyph glyph-name="copyright" unicode="&#xa9;" horiz-adv-x="962" 
d="M478 -169c-247 0 -418 159 -418 406c0 248 174 420 424 420c247 0 418 -159 418 -406c0 -248 -174 -420 -424 -420zM500 -129c210 0 337 152 337 370c0 235 -147 381 -375 381c-210 0 -337 -157 -337 -375c0 -236 148 -376 375 -376zM489 -9c-126 0 -232 81 -232 244
c0 166 106 261 238 261c55 0 99 -12 134 -27c3 -28 7 -56 10 -84c-45 45 -101 76 -163 76c-93 0 -147 -84 -147 -190c0 -141 67 -229 185 -229c56 0 99 15 131 34c-15 -60 -82 -85 -156 -85z" />
    <glyph glyph-name="registered" unicode="&#xae;" horiz-adv-x="962" 
d="M478 -177c-247 0 -418 159 -418 406c0 248 174 420 424 420c247 0 418 -159 418 -406c0 -248 -174 -420 -424 -420zM500 -137c210 0 337 152 337 370c0 235 -147 381 -375 381c-210 0 -337 -157 -337 -375c0 -236 148 -376 375 -376zM297 0c34 14 43 28 45 47
c3 27 3 77 3 140v114c0 56 1 90 -1 132c-1 25 -15 39 -51 55h73c29 0 67 2 100 2c100 0 165 -43 165 -124c0 -66 -31 -103 -88 -142c47 -67 90 -126 124 -166c25 -29 43 -44 67 -58h-96c-14 0 -16 1 -22 9c-18 25 -38 57 -62 97s-50 84 -65 99c-2 2 -5 4 -8 4h-74
c0 -89 0 -128 3 -160c2 -22 16 -37 52 -49h-165zM480 229c59 0 86 44 86 107c0 81 -36 133 -110 133c-21 0 -38 -2 -49 -4v-219c0 -3 2 -6 5 -7c18 -6 42 -10 68 -10z" />
    <glyph glyph-name="trademark" unicode="&#x2122;" horiz-adv-x="1002" 
d="M423 368c25 9 40 24 42 52c7 91 15 180 24 271l7 72h19l160 -312l150 312h20l6 -68c8 -89 18 -178 23 -266c2 -34 14 -51 48 -61h-129c25 12 35 26 33 52l-17 229h-2l-136 -276h-8l-143 276h-2l-20 -228c-3 -31 10 -46 38 -53h-113zM145 368c29 9 39 20 41 37
c3 22 3 67 3 139c0 58 0 122 -1 182h-83c-33 0 -46 -18 -65 -54l4 89c15 -1 28 -2 43 -2h254c15 0 29 1 44 2l-3 -89c-19 36 -26 54 -58 54h-83v-182c0 -71 0 -111 3 -137c2 -18 13 -30 43 -39h-142z" />
    <glyph glyph-name="degree" unicode="&#xb0;" horiz-adv-x="409" 
d="M206 479c-88 0 -149 57 -149 138s61 144 149 144c91 0 146 -58 146 -142c0 -77 -55 -140 -146 -140zM207 505c53 0 84 46 83 111c-1 69 -34 117 -85 117s-87 -51 -86 -117s38 -111 88 -111z" />
    <glyph glyph-name="ordfeminine" unicode="&#xaa;" horiz-adv-x="388" 
d="M137 410c-56 0 -93 29 -93 78c0 57 44 75 98 87l92 20c1 17 2 40 2 59c0 38 -26 57 -72 57c-47 0 -84 -14 -115 -36c0 18 5 36 15 48c20 24 59 38 112 38c71 0 118 -30 118 -94c0 -61 -8 -130 -8 -185c0 -21 11 -32 27 -32c18 0 29 5 39 14c0 -13 -4 -29 -13 -38
s-24 -16 -45 -16c-36 0 -63 18 -63 61c0 33 1 66 2 96l-76 -14c-27 -5 -49 -19 -49 -50c0 -36 28 -53 58 -53c27 0 48 8 65 21c-14 -36 -39 -61 -94 -61z" />
    <glyph glyph-name="ordmasculine" unicode="&#xba;" horiz-adv-x="434" 
d="M219 411c-99 0 -175 68 -175 172c0 109 82 178 174 178c97 0 172 -67 172 -175c0 -104 -77 -175 -171 -175zM225 445c61 0 98 48 98 123c0 82 -36 158 -112 158c-63 0 -101 -51 -101 -130c0 -91 47 -151 115 -151z" />
    <glyph glyph-name="guilsinglleft" unicode="&#x2039;" horiz-adv-x="433" 
d="M363 -1c-130 98 -231 184 -307 258c93 93 195 173 306 234l-55 -72l-142 -162l156 -200z" />
    <glyph glyph-name="guilsinglright" unicode="&#x203a;" horiz-adv-x="433" 
d="M70 -1l42 58l156 200l-142 162l-55 72c111 -61 213 -141 306 -234c-76 -74 -177 -160 -307 -258z" />
    <glyph glyph-name="guillemetleft" unicode="&#xab;" horiz-adv-x="643" 
d="M363 -1c-130 98 -231 184 -307 258c93 93 195 173 306 234l-55 -72l-142 -162l156 -200zM573 -1c-130 98 -231 184 -307 258c93 93 195 173 306 234l-55 -72l-142 -162l156 -200z" />
    <glyph glyph-name="guillemetright" unicode="&#xbb;" horiz-adv-x="643" 
d="M70 -1l42 58l156 200l-142 162l-55 72c111 -61 213 -141 306 -234c-76 -74 -177 -160 -307 -258zM280 -1l42 58l156 200l-142 162l-55 72c111 -61 213 -141 306 -234c-76 -74 -177 -160 -307 -258z" />
    <glyph glyph-name="quoteleft" unicode="&#x2018;" horiz-adv-x="239" 
d="M184 768c-44 -39 -70 -77 -67 -124c2 -33 54 -33 54 -78c0 -29 -23 -53 -51 -53c-34 0 -61 30 -61 84c0 91 66 150 125 171z" />
    <glyph glyph-name="quoteright" unicode="&#x2019;" horiz-adv-x="239" 
d="M55 536c44 39 70 77 67 124c-2 33 -54 33 -54 78c0 29 23 53 51 53c34 0 61 -30 61 -84c0 -91 -66 -150 -125 -171z" />
    <glyph glyph-name="quotesinglbase" unicode="&#x201a;" horiz-adv-x="211" 
d="M55 -142c44 39 70 77 67 124c-2 33 -54 33 -54 78c0 29 23 53 51 53c34 0 61 -30 61 -84c0 -91 -66 -150 -125 -171z" />
    <glyph glyph-name="quotedblleft" unicode="&#x201c;" horiz-adv-x="393" 
d="M170 768c-44 -39 -70 -77 -67 -124c2 -33 54 -33 54 -78c0 -29 -23 -53 -51 -53c-34 0 -61 30 -61 84c0 91 66 150 125 171zM338 768c-44 -39 -70 -77 -67 -124c2 -33 54 -33 54 -78c0 -29 -23 -53 -51 -53c-34 0 -61 30 -61 84c0 91 66 150 125 171z" />
    <glyph glyph-name="quotedblright" unicode="&#x201d;" horiz-adv-x="393" 
d="M55 536c44 39 70 77 67 124c-2 33 -54 33 -54 78c0 29 23 53 51 53c34 0 61 -30 61 -84c0 -91 -66 -150 -125 -171zM223 536c44 39 70 77 67 124c-2 33 -54 33 -54 78c0 29 23 53 51 53c34 0 61 -30 61 -84c0 -91 -66 -150 -125 -171z" />
    <glyph glyph-name="quotedblbase" unicode="&#x201e;" horiz-adv-x="393" 
d="M51 -142c44 39 70 77 67 124c-2 33 -54 33 -54 78c0 29 23 53 51 53c34 0 61 -30 61 -84c0 -91 -66 -150 -125 -171zM219 -142c44 39 70 77 67 124c-2 33 -54 33 -54 78c0 29 23 53 51 53c34 0 61 -30 61 -84c0 -91 -66 -150 -125 -171z" />
    <glyph glyph-name="dagger" unicode="&#x2020;" horiz-adv-x="608" 
d="M189 -140c52 17 70 46 73 79c4 42 4 121 4 259v242h-111c-58 0 -81 -25 -115 -74l2 154c27 -36 55 -44 82 -44h142c0 72 -1 134 -4 162c-4 33 -17 46 -43 62h178c-26 -16 -43 -31 -46 -65c-3 -32 -4 -91 -5 -159h148c27 0 47 8 74 44l-2 -154c-34 49 -45 74 -103 74h-117
v-242c0 -137 1 -207 5 -256c3 -34 23 -64 76 -82h-238z" />
    <glyph glyph-name="daggerdbl" unicode="&#x2021;" horiz-adv-x="608" 
d="M494 186c27 0 47 8 74 44l-2 -154c-34 49 -45 74 -103 74h-117c0 -106 1 -165 5 -208c3 -34 23 -64 76 -82h-238c52 17 70 46 73 79c4 37 4 102 4 211h-111c-58 0 -81 -25 -115 -74l2 154c27 -36 55 -44 82 -44h142v12v242h-111c-58 0 -81 -25 -115 -74l2 154
c27 -36 55 -44 82 -44h142c0 72 -1 134 -4 162c-4 33 -17 46 -43 62h178c-26 -16 -43 -31 -46 -65c-3 -32 -4 -91 -5 -159h148c27 0 47 8 74 44l-2 -154c-34 49 -45 74 -103 74h-117v-242v-12h148z" />
    <glyph glyph-name="ellipsis" unicode="&#x2026;" horiz-adv-x="727" 
d="M126 -18c-33 0 -55 33 -55 56c0 26 26 52 53 52s55 -28 55 -55c0 -26 -24 -53 -53 -53zM364 -18c-33 0 -55 33 -55 56c0 26 26 52 53 52s55 -28 55 -55c0 -26 -24 -53 -53 -53zM604 -18c-33 0 -55 33 -55 56c0 26 26 52 53 52s55 -28 55 -55c0 -26 -24 -53 -53 -53z" />
    <glyph glyph-name="paragraph" unicode="&#xb6;" horiz-adv-x="768" 
d="M278 -77c62 30 75 62 75 141v163c-164 9 -281 99 -281 247c0 168 117 276 289 276h70v-827h-153zM533 -77v827h147c-58 -29 -70 -50 -70 -141v-545c0 -79 14 -111 69 -141h-146z" />
    <glyph glyph-name="bullet" unicode="&#x2022;" horiz-adv-x="498" 
d="M249 158c-46 1 -97 50 -97 97c0 46 51 98 97 98c44 0 97 -50 97 -98c0 -45 -48 -98 -97 -97z" />
    <glyph glyph-name="periodcentered" unicode="&#xb7;" horiz-adv-x="300" 
d="M156 284c-33 0 -55 33 -55 56c0 26 26 52 53 52s55 -28 55 -55c0 -26 -24 -53 -53 -53z" />
    <glyph glyph-name="endash" unicode="&#x2013;" 
d="M80 257v49h440v-49h-440z" />
    <glyph glyph-name="emdash" unicode="&#x2014;" horiz-adv-x="1000" 
d="M80 257v49h840v-49h-840z" />
    <glyph glyph-name="softhyphen.case" horiz-adv-x="336" 
d="M44 317l5 56c61 4 197 19 243 31l-5 -55c-66 -4 -197 -19 -243 -32z" />
    <glyph glyph-name="question.case" horiz-adv-x="484" 
d="M274 174c-53 4 -101 34 -101 81c0 117 217 194 217 333c0 92 -52 154 -152 154c-81 0 -136 -42 -187 -124l12 121c45 25 102 41 174 41c134 0 227 -70 227 -199c0 -153 -228 -238 -228 -339c0 -27 14 -49 38 -68zM229 -18c-33 0 -55 33 -55 56c0 26 26 52 53 52
s55 -28 55 -55c0 -26 -24 -53 -53 -53z" />
    <glyph glyph-name="exclam.case" horiz-adv-x="348" 
d="M167 165c-26 172 -38 302 -38 425c0 64 4 120 14 180h63c10 -60 14 -116 14 -180c0 -123 -13 -253 -39 -425h-14zM175 -18c-33 0 -55 33 -55 56c0 26 26 52 53 52s55 -28 55 -55c0 -26 -24 -53 -53 -53z" />
    <glyph glyph-name="questiondown.case" horiz-adv-x="484" 
d="M259 765c33 0 55 -33 55 -56c0 -26 -26 -52 -53 -52s-55 28 -55 55c0 26 24 53 53 53zM214 573c53 -4 101 -34 101 -81c0 -117 -217 -194 -217 -333c0 -92 52 -154 152 -154c81 0 136 42 187 124l-12 -121c-45 -25 -102 -41 -174 -41c-134 0 -227 70 -227 199
c0 153 228 238 228 339c0 27 -14 49 -38 68z" />
    <glyph glyph-name="exclamdown.case" horiz-adv-x="348" 
d="M173 788c33 0 55 -33 55 -56c0 -26 -26 -52 -53 -52s-55 28 -55 55c0 26 24 53 53 53zM181 605c26 -172 38 -302 38 -425c0 -64 -4 -120 -14 -180h-63c-10 60 -14 116 -14 180c0 123 13 253 39 425h14z" />
    <glyph glyph-name="at.case" horiz-adv-x="963" 
d="M452 -35c-214 0 -372 123 -372 349c0 274 201 477 466 477c224 0 349 -150 349 -344c0 -191 -121 -315 -259 -315c-48 0 -77 23 -77 71c0 24 42 279 42 326c0 38 -19 59 -70 59c-109 0 -179 -141 -179 -283c0 -84 38 -121 103 -121c37 0 73 11 105 32
c-28 -52 -76 -84 -150 -84c-76 0 -135 49 -135 152c0 175 101 353 286 353c74 0 111 -32 111 -84s-49 -288 -49 -348c0 -28 15 -43 39 -43c94 0 173 110 173 267c0 177 -90 327 -309 327c-217 0 -379 -184 -379 -430c0 -215 141 -320 335 -320c82 0 150 13 212 36
c-17 -22 -43 -39 -75 -51c-45 -18 -103 -26 -167 -26z" />
    <glyph glyph-name="parenleft.case" horiz-adv-x="404" 
d="M337 -106c-170 97 -285 264 -285 500c0 226 121 381 285 481l11 -7c-124 -115 -208 -258 -208 -477c0 -224 84 -383 208 -487z" />
    <glyph glyph-name="parenright.case" horiz-adv-x="404" 
d="M67 -106l-11 10c124 104 208 263 208 487c0 219 -84 362 -208 477l11 7c164 -100 285 -255 285 -481c0 -236 -115 -403 -285 -500z" />
    <glyph glyph-name="bracketleft.case" horiz-adv-x="365" 
d="M114 -119c5 169 8 338 8 506c0 161 -3 322 -8 483h155v-28h-79c5 -155 8 -311 8 -466c0 -156 -3 -312 -8 -467h79v-28h-155z" />
    <glyph glyph-name="bracketright.case" horiz-adv-x="365" 
d="M251 -119h-155v28h79c-5 155 -8 311 -8 467c0 155 3 311 8 466h-79v28h155c-5 -161 -8 -322 -8 -483c0 -168 3 -337 8 -506z" />
    <glyph glyph-name="braceleft.case" horiz-adv-x="387" 
d="M251 -119c-85 0 -136 28 -136 87c0 97 41 239 41 327c0 59 -7 85 -51 85h-5v21h5c44 0 51 29 51 85c0 65 -41 229 -41 296c0 59 51 88 134 88h6l-9 -5c-12 -6 -26 -18 -32 -28c-11 -18 -16 -40 -16 -66c0 -67 29 -217 29 -274c0 -55 -24 -84 -61 -103v-4
c40 -15 61 -47 61 -100c0 -86 -29 -241 -29 -321c0 -23 4 -40 13 -55c8 -13 20 -22 37 -30l7 -3h-4z" />
    <glyph glyph-name="braceright.case" horiz-adv-x="395" 
d="M144 -119h-4l7 3c17 8 29 17 37 30c9 15 13 32 13 55c0 80 -29 235 -29 321c0 53 21 85 61 100v4c-37 19 -61 48 -61 103c0 57 29 207 29 274c0 26 -5 48 -16 66c-6 10 -20 22 -32 28l-9 5h6c83 0 134 -29 134 -88c0 -67 -41 -231 -41 -296c0 -56 7 -85 51 -85h5v-21h-5
c-44 0 -51 -26 -51 -85c0 -88 41 -230 41 -327c0 -59 -51 -87 -136 -87z" />
    <glyph glyph-name="backslash.case" horiz-adv-x="441" 
d="M308 -100l-240 940h66l240 -940h-66z" />
    <glyph glyph-name="slash.case" horiz-adv-x="441" 
d="M67 -100l240 940h66l-240 -940h-66z" />
    <glyph glyph-name="brokenbar.case" horiz-adv-x="265" 
d="M100 476v364h65v-364h-65zM100 -100v364h65v-364h-65z" />
    <glyph glyph-name="bar.case" horiz-adv-x="265" 
d="M100 -100v940h65v-940h-65z" />
    <glyph glyph-name="asciitilde.case" horiz-adv-x="700" 
d="M56 294c0 79 49 127 120 127c95 0 276 -78 355 -78c57 0 96 32 113 69c0 -71 -44 -123 -114 -123c-95 0 -284 78 -357 78c-54 0 -87 -27 -117 -73z" />
    <glyph glyph-name="guilsinglleft.case" horiz-adv-x="433" 
d="M363 89c-130 98 -231 184 -307 258c93 93 195 173 306 234l-55 -72l-142 -162l156 -200z" />
    <glyph glyph-name="guilsinglright.case" horiz-adv-x="433" 
d="M70 89l42 58l156 200l-142 162l-55 72c111 -61 213 -141 306 -234c-76 -74 -177 -160 -307 -258z" />
    <glyph glyph-name="guillemetleft.case" horiz-adv-x="643" 
d="M363 89c-130 98 -231 184 -307 258c93 93 195 173 306 234l-55 -72l-142 -162l156 -200zM573 89c-130 98 -231 184 -307 258c93 93 195 173 306 234l-55 -72l-142 -162l156 -200z" />
    <glyph glyph-name="guillemetright.case" horiz-adv-x="643" 
d="M70 89l42 58l156 200l-142 162l-55 72c111 -61 213 -141 306 -234c-76 -74 -177 -160 -307 -258zM280 89l42 58l156 200l-142 162l-55 72c111 -61 213 -141 306 -234c-76 -74 -177 -160 -307 -258z" />
    <glyph glyph-name="bullet.case" horiz-adv-x="498" 
d="M249 291c-46 1 -97 50 -97 97c0 46 51 98 97 98c44 0 97 -50 97 -98c0 -45 -48 -98 -97 -97z" />
    <glyph glyph-name="periodcentered.case" horiz-adv-x="300" 
d="M156 374c-33 0 -55 33 -55 56c0 26 26 52 53 52s55 -28 55 -55c0 -26 -24 -53 -53 -53z" />
    <glyph glyph-name="endash.case" 
d="M80 347v49h440v-49h-440z" />
    <glyph glyph-name="emdash.case" horiz-adv-x="1000" 
d="M80 347v49h840v-49h-840z" />
    <glyph glyph-name="acute" unicode="&#xb4;" 
d="M225 557l64 171c12 2 26 3 41 3c16 0 31 -1 45 -3c-52 -50 -102 -114 -139 -171h-11z" />
    <glyph glyph-name="caron" unicode="&#x2c7;" 
d="M262 561l-79 171h12c29 -42 66 -89 106 -130c39 41 76 88 105 130h12l-79 -171c-13 -3 -25 -4 -38 -4s-26 1 -39 4z" />
    <glyph glyph-name="cedilla" unicode="&#xb8;" 
d="M297 -227c-20 0 -40 3 -54 11c-16 9 -27 21 -33 39c22 -13 45 -21 72 -21c35 0 58 18 58 53c0 36 -29 55 -82 55l50 90h13l-30 -67c64 -5 100 -25 100 -75c0 -54 -40 -85 -94 -85z" />
    <glyph glyph-name="circumflex" unicode="&#x2c6;" 
d="M183 557l79 171c13 3 26 4 39 4s25 -1 38 -4l79 -171h-12c-29 42 -66 89 -105 130c-40 -41 -77 -88 -106 -130h-12z" />
    <glyph glyph-name="dieresis" unicode="&#xa8;" 
d="M209 609c-27 0 -42 19 -42 42c0 25 16 42 42 42c24 0 43 -14 43 -40c0 -28 -19 -44 -43 -44zM391 609c-27 0 -42 19 -42 42c0 25 16 42 42 42c25 0 43 -14 43 -40c0 -28 -18 -44 -43 -44z" />
    <glyph glyph-name="dotaccent" unicode="&#x2d9;" 
d="M300 611c-25 0 -52 26 -52 51c0 24 27 53 52 53c24 0 52 -28 52 -53c0 -24 -26 -51 -52 -51z" />
    <glyph glyph-name="grave" unicode="`" 
d="M364 557c-37 57 -87 121 -139 171c14 2 29 3 45 3c15 0 29 -1 41 -3l64 -171h-11z" />
    <glyph glyph-name="ring" unicode="&#x2da;" 
d="M300 561c-49 0 -84 37 -84 83s35 83 84 83c50 0 85 -37 85 -83s-35 -83 -85 -83zM300 577c27 0 43 29 43 67s-16 67 -43 67c-26 0 -42 -29 -42 -67s16 -67 42 -67z" />
    <glyph glyph-name="tilde" unicode="&#x2dc;" 
d="M162 567v28c0 51 30 81 77 81c53 0 93 -17 136 -17c33 0 49 18 62 44c1 -10 2 -24 2 -33c0 -42 -20 -70 -70 -70c-51 0 -92 16 -136 16c-34 0 -55 -19 -71 -49z" />
    <glyph glyph-name="Aacute" unicode="&#xc1;" horiz-adv-x="728" 
d="M502 901c-65 -34 -136 -77 -192 -116h-10l102 132c15 0 32 -2 49 -4c18 -3 36 -7 51 -12zM480 0c40 14 75 32 75 57c0 16 -6 33 -17 61l-64 158h-261l-67 -172c-8 -20 -11 -34 -11 -47c0 -27 29 -42 76 -57h-211c55 22 82 53 106 113l196 497c15 37 43 105 56 140h13
l52 -131l201 -501c26 -64 55 -98 104 -118h-248zM227 310h234l-117 290h-4z" />
    <glyph glyph-name="Acircumflex" unicode="&#xc2;" horiz-adv-x="728" 
d="M362 883c-42 -37 -80 -79 -110 -117h-13l82 153c14 3 28 4 41 4c14 0 26 -1 40 -4l82 -153h-13c-30 38 -68 80 -109 117zM480 0c40 14 75 32 75 57c0 16 -6 33 -17 61l-64 158h-261l-67 -172c-8 -20 -11 -34 -11 -47c0 -27 29 -42 76 -57h-211c55 22 82 53 106 113
l196 497c15 37 43 105 56 140h13l52 -131l201 -501c26 -64 55 -98 104 -118h-248zM227 310h234l-117 290h-4z" />
    <glyph glyph-name="Adieresis" unicode="&#xc4;" horiz-adv-x="728" 
d="M269 802c-26 0 -41 18 -41 40c0 24 16 40 41 40c23 0 41 -13 41 -38c0 -27 -18 -42 -41 -42zM453 802c-26 0 -40 18 -40 40c0 24 15 40 40 40c24 0 42 -13 42 -38c0 -27 -18 -42 -42 -42zM480 0c40 14 75 32 75 57c0 16 -6 33 -17 61l-64 158h-261l-67 -172
c-8 -20 -11 -34 -11 -47c0 -27 29 -42 76 -57h-211c55 22 82 53 106 113l196 497c15 37 43 105 56 140h13l52 -131l201 -501c26 -64 55 -98 104 -118h-248zM227 310h234l-117 290h-4z" />
    <glyph glyph-name="Adieresis.ss08" horiz-adv-x="709" 
d="M182 672c-26 0 -40 18 -40 40c0 24 15 40 40 40c24 0 42 -13 42 -38c0 -27 -18 -42 -42 -42zM529 672c-26 0 -41 18 -41 40c0 24 16 40 41 40c23 0 41 -13 41 -38c0 -27 -18 -42 -41 -42zM480 0c40 14 75 32 75 57c0 16 -6 33 -17 61l-64 158h-261l-67 -172
c-8 -20 -11 -34 -11 -47c0 -27 29 -42 76 -57h-211c55 22 82 53 106 113l196 497c15 37 43 105 56 140h13l52 -131l201 -501c26 -64 55 -98 104 -118h-248zM227 310h234l-117 290h-4z" />
    <glyph glyph-name="Agrave" unicode="&#xc0;" horiz-adv-x="728" 
d="M423 788h-10c-56 39 -127 82 -192 116c15 5 33 10 51 12c17 2 34 4 49 4zM480 0c40 14 75 32 75 57c0 16 -6 33 -17 61l-64 158h-261l-67 -172c-8 -20 -11 -34 -11 -47c0 -27 29 -42 76 -57h-211c55 22 82 53 106 113l196 497c15 37 43 105 56 140h13l52 -131l201 -501
c26 -64 55 -98 104 -118h-248zM227 310h234l-117 290h-4z" />
    <glyph glyph-name="Aring" unicode="&#xc5;" horiz-adv-x="728" 
d="M480 0c40 14 75 32 75 57c0 16 -6 33 -17 61l-64 158h-261l-67 -172c-8 -20 -11 -34 -11 -47c0 -27 29 -42 76 -57h-211c55 22 82 53 106 113l196 497c13 33 37 89 51 126c-42 4 -70 38 -70 77c0 43 32 77 78 77s79 -34 79 -77c0 -37 -26 -69 -64 -76
c15 -39 34 -86 47 -118l201 -501c26 -64 55 -98 104 -118h-248zM322 813c0 -35 15 -62 39 -62c25 0 40 27 40 62s-15 62 -40 62c-24 0 -39 -27 -39 -62zM227 310h234l-117 290h-4z" />
    <glyph glyph-name="Atilde" unicode="&#xc3;" horiz-adv-x="728" 
d="M296 836c-32 0 -53 -19 -69 -50v31c0 51 28 79 77 79c48 0 87 -17 128 -17c30 0 46 20 60 45c1 -9 2 -24 2 -33c0 -43 -20 -72 -71 -72c-46 0 -85 17 -127 17zM480 0c40 14 75 32 75 57c0 16 -6 33 -17 61l-64 158h-261l-67 -172c-8 -20 -11 -34 -11 -47
c0 -27 29 -42 76 -57h-211c55 22 82 53 106 113l196 497c15 37 43 105 56 140h13l52 -131l201 -501c26 -64 55 -98 104 -118h-248zM227 310h234l-117 290h-4z" />
    <glyph glyph-name="Ccedilla" unicode="&#xc7;" horiz-adv-x="755" 
d="M472 -9h-18l-25 -55c62 -5 96 -24 96 -72c0 -52 -38 -82 -90 -82c-19 0 -38 3 -52 10c-15 9 -26 21 -32 38c21 -13 44 -20 70 -20c33 0 55 17 55 51s-28 53 -79 53l44 78c-213 12 -361 151 -361 377c0 231 164 391 393 391c94 0 157 -18 218 -42c5 -48 10 -100 17 -154
c-58 98 -134 153 -254 153c-165 0 -281 -118 -281 -326c0 -218 125 -350 330 -350c86 0 152 20 216 67c-40 -83 -134 -117 -247 -117z" />
    <glyph glyph-name="Eth" unicode="&#xd0;" horiz-adv-x="886" 
d="M394 754c252 0 412 -137 412 -364c0 -240 -167 -398 -406 -398c-84 0 -156 8 -226 8h-107c52 17 74 47 77 82c4 42 5 118 5 256v39h-87v35h87c0 83 0 160 -2 249c-1 43 -24 65 -83 89h102c75 0 151 4 228 4zM409 22c186 0 305 132 305 331c0 226 -134 368 -358 368
c-53 0 -86 -2 -104 -8c-16 -5 -21 -15 -22 -46c-2 -52 -1 -156 -2 -255h142v-35h-142v-39c-1 -117 2 -205 6 -253c2 -24 15 -37 37 -44c37 -12 86 -19 138 -19z" />
    <glyph glyph-name="Eacute" unicode="&#xc9;" horiz-adv-x="564" 
d="M240 785l102 132c15 0 32 -2 49 -4c18 -3 36 -7 51 -12c-65 -34 -136 -77 -192 -116h-10zM494 -2c-28 1 -51 2 -83 2h-344c60 27 70 49 73 82c4 42 5 118 5 256c0 115 1 203 -2 318c-1 43 -23 64 -79 94h332c27 0 53 2 78 4v-144c-34 69 -51 104 -109 104h-141v-299h150
c30 0 54 5 79 14l-10 -106c-16 40 -26 57 -60 57h-159v-42c0 -137 1 -207 5 -256c4 -33 17 -46 54 -46h108c60 0 81 39 117 108z" />
    <glyph glyph-name="Ecircumflex" unicode="&#xca;" horiz-adv-x="564" 
d="M179 766l82 153c14 3 28 4 41 4c14 0 26 -1 40 -4l82 -153h-13c-30 38 -68 80 -109 117c-42 -37 -80 -79 -110 -117h-13zM494 -2c-28 1 -51 2 -83 2h-344c60 27 70 49 73 82c4 42 5 118 5 256c0 115 1 203 -2 318c-1 43 -23 64 -79 94h332c27 0 53 2 78 4v-144
c-34 69 -51 104 -109 104h-141v-299h150c30 0 54 5 79 14l-10 -106c-16 40 -26 57 -60 57h-159v-42c0 -137 1 -207 5 -256c4 -33 17 -46 54 -46h108c60 0 81 39 117 108z" />
    <glyph glyph-name="Edieresis" unicode="&#xcb;" horiz-adv-x="564" 
d="M209 802c-26 0 -41 18 -41 40c0 24 16 40 41 40c23 0 41 -13 41 -38c0 -27 -18 -42 -41 -42zM393 802c-26 0 -40 18 -40 40c0 24 15 40 40 40c24 0 42 -13 42 -38c0 -27 -18 -42 -42 -42zM494 -2c-28 1 -51 2 -83 2h-344c60 27 70 49 73 82c4 42 5 118 5 256
c0 115 1 203 -2 318c-1 43 -23 64 -79 94h332c27 0 53 2 78 4v-144c-34 69 -51 104 -109 104h-141v-299h150c30 0 54 5 79 14l-10 -106c-16 40 -26 57 -60 57h-159v-42c0 -137 1 -207 5 -256c4 -33 17 -46 54 -46h108c60 0 81 39 117 108z" />
    <glyph glyph-name="Egrave" unicode="&#xc8;" horiz-adv-x="564" 
d="M353 788c-56 39 -127 82 -192 116c15 5 33 10 51 12c17 2 34 4 49 4l102 -132h-10zM494 -2c-28 1 -51 2 -83 2h-344c60 27 70 49 73 82c4 42 5 118 5 256c0 115 1 203 -2 318c-1 43 -23 64 -79 94h332c27 0 53 2 78 4v-144c-34 69 -51 104 -109 104h-141v-299h150
c30 0 54 5 79 14l-10 -106c-16 40 -26 57 -60 57h-159v-42c0 -137 1 -207 5 -256c4 -33 17 -46 54 -46h108c60 0 81 39 117 108z" />
    <glyph glyph-name="Iacute" unicode="&#xcd;" horiz-adv-x="373" 
d="M125 785l102 132c15 0 32 -2 49 -4c18 -3 36 -7 51 -12c-65 -34 -136 -77 -192 -116h-10zM67 0c52 17 70 39 73 72c4 42 5 128 5 266c0 115 1 213 -2 328c-1 43 -23 60 -79 84h245c-62 -24 -85 -41 -85 -84v-328c0 -137 1 -214 5 -263c3 -34 23 -57 76 -75h-238z" />
    <glyph glyph-name="Icircumflex" unicode="&#xce;" horiz-adv-x="373" 
d="M64 766l82 153c14 3 28 4 41 4c14 0 26 -1 40 -4l82 -153h-13c-30 38 -68 80 -109 117c-42 -37 -80 -79 -110 -117h-13zM67 0c52 17 70 39 73 72c4 42 5 128 5 266c0 115 1 213 -2 328c-1 43 -23 60 -79 84h245c-62 -24 -85 -41 -85 -84v-328c0 -137 1 -214 5 -263
c3 -34 23 -57 76 -75h-238z" />
    <glyph glyph-name="Idieresis" unicode="&#xcf;" horiz-adv-x="373" 
d="M94 802c-26 0 -41 18 -41 40c0 24 16 40 41 40c23 0 41 -13 41 -38c0 -27 -18 -42 -41 -42zM278 802c-26 0 -40 18 -40 40c0 24 15 40 40 40c24 0 42 -13 42 -38c0 -27 -18 -42 -42 -42zM67 0c52 17 70 39 73 72c4 42 5 128 5 266c0 115 1 213 -2 328
c-1 43 -23 60 -79 84h245c-62 -24 -85 -41 -85 -84v-328c0 -137 1 -214 5 -263c3 -34 23 -57 76 -75h-238z" />
    <glyph glyph-name="Igrave" unicode="&#xcc;" horiz-adv-x="373" 
d="M238 788c-56 39 -127 82 -192 116c15 5 33 10 51 12c17 2 34 4 49 4l102 -132h-10zM67 0c52 17 70 39 73 72c4 42 5 128 5 266c0 115 1 213 -2 328c-1 43 -23 60 -79 84h245c-62 -24 -85 -41 -85 -84v-328c0 -137 1 -214 5 -263c3 -34 23 -57 76 -75h-238z" />
    <glyph glyph-name="Lslash" unicode="&#x141;" horiz-adv-x="553" 
d="M396 36c60 0 81 39 117 108l-14 -146c-28 1 -51 2 -83 2h-349c52 17 70 39 73 72c4 39 5 118 5 241l-114 -101v55l114 103c0 101 1 192 -2 296c-1 43 -23 60 -79 84h245c-62 -24 -85 -41 -85 -84v-225l108 97v-58l-108 -96v-46c0 -85 2 -226 5 -256c3 -34 17 -46 54 -46
h113z" />
    <glyph glyph-name="Ntilde" unicode="&#xd1;" horiz-adv-x="925" 
d="M328 786v31c0 51 28 79 77 79c48 0 87 -17 128 -17c30 0 46 20 60 45c1 -9 2 -24 2 -33c0 -43 -20 -72 -71 -72c-46 0 -85 17 -127 17c-32 0 -53 -19 -69 -50zM756 -8l-568 613h-4v-504c0 -56 22 -86 81 -101h-197c48 19 70 48 70 100c1 174 5 346 6 521v137h20l569 -618
h4v509c0 61 -32 83 -91 101h211c-51 -18 -70 -41 -71 -100c-2 -132 -6 -372 -6 -511v-147h-24z" />
    <glyph glyph-name="Oacute" unicode="&#xd3;" horiz-adv-x="937" 
d="M404 785l102 132c15 0 32 -2 49 -4c18 -3 36 -7 51 -12c-65 -34 -136 -77 -192 -116h-10zM468 -8c-209 0 -388 143 -388 372c0 223 157 396 388 396c217 0 389 -152 389 -378c0 -225 -170 -390 -389 -390zM488 33c180 0 276 145 276 327c0 200 -125 357 -313 357
c-178 0 -278 -145 -278 -331c0 -198 123 -353 315 -353z" />
    <glyph glyph-name="Ocircumflex" unicode="&#xd4;" horiz-adv-x="937" 
d="M343 766l82 153c14 3 28 4 41 4c14 0 26 -1 40 -4l82 -153h-13c-30 38 -68 80 -109 117c-42 -37 -80 -79 -110 -117h-13zM468 -8c-209 0 -388 143 -388 372c0 223 157 396 388 396c217 0 389 -152 389 -378c0 -225 -170 -390 -389 -390zM488 33c180 0 276 145 276 327
c0 200 -125 357 -313 357c-178 0 -278 -145 -278 -331c0 -198 123 -353 315 -353z" />
    <glyph glyph-name="Odieresis" unicode="&#xd6;" horiz-adv-x="937" 
d="M373 802c-26 0 -41 18 -41 40c0 24 16 40 41 40c23 0 41 -13 41 -38c0 -27 -18 -42 -41 -42zM557 802c-26 0 -40 18 -40 40c0 24 15 40 40 40c24 0 42 -13 42 -38c0 -27 -18 -42 -42 -42zM468 -8c-209 0 -388 143 -388 372c0 223 157 396 388 396
c217 0 389 -152 389 -378c0 -225 -170 -390 -389 -390zM488 33c180 0 276 145 276 327c0 200 -125 357 -313 357c-178 0 -278 -145 -278 -331c0 -198 123 -353 315 -353z" />
    <glyph glyph-name="Ograve" unicode="&#xd2;" horiz-adv-x="937" 
d="M517 788c-56 39 -127 82 -192 116c15 5 33 10 51 12c17 2 34 4 49 4l102 -132h-10zM468 -8c-209 0 -388 143 -388 372c0 223 157 396 388 396c217 0 389 -152 389 -378c0 -225 -170 -390 -389 -390zM488 33c180 0 276 145 276 327c0 200 -125 357 -313 357
c-178 0 -278 -145 -278 -331c0 -198 123 -353 315 -353z" />
    <glyph glyph-name="Oslash" unicode="&#xd8;" horiz-adv-x="937" 
d="M653 718c122 -60 204 -180 204 -336c0 -225 -170 -390 -389 -390c-51 0 -101 9 -146 25l-33 -69h-44l40 84c-121 58 -205 175 -205 332c0 223 157 396 388 396c53 0 103 -9 149 -26l32 68h44zM173 386c0 -127 51 -237 138 -299l282 596c-42 22 -89 34 -142 34
c-178 0 -278 -145 -278 -331zM488 33c180 0 276 145 276 327c0 128 -51 239 -138 301l-281 -594c42 -22 90 -34 143 -34z" />
    <glyph glyph-name="Otilde" unicode="&#xd5;" horiz-adv-x="937" 
d="M331 786v31c0 51 28 79 77 79c48 0 87 -17 128 -17c30 0 46 20 60 45c1 -9 2 -24 2 -33c0 -43 -20 -72 -71 -72c-46 0 -85 17 -127 17c-32 0 -53 -19 -69 -50zM468 -8c-209 0 -388 143 -388 372c0 223 157 396 388 396c217 0 389 -152 389 -378
c0 -225 -170 -390 -389 -390zM488 33c180 0 276 145 276 327c0 200 -125 357 -313 357c-178 0 -278 -145 -278 -331c0 -198 123 -353 315 -353z" />
    <glyph glyph-name="Scaron" unicode="&#x160;" horiz-adv-x="540" 
d="M246 782l-79 148h12c29 -36 66 -77 106 -112c39 35 76 76 105 112h12l-79 -148c-13 -2 -25 -3 -38 -3s-26 1 -39 3zM231 -8c-47 0 -93 6 -135 25c-13 6 -16 12 -16 24c0 18 5 81 8 134c26 -103 72 -148 165 -148c91 0 144 48 143 131c-1 80 -66 132 -138 187
c-78 61 -161 129 -161 237s80 179 206 179c73 0 114 -17 137 -17v-136c-23 76 -66 118 -155 118c-74 0 -123 -38 -122 -118c1 -79 79 -131 155 -192c76 -58 150 -126 150 -227c0 -120 -91 -197 -237 -197z" />
    <glyph glyph-name="Thorn" unicode="&#xde;" horiz-adv-x="631" 
d="M67 0c52 17 70 39 73 72c4 42 5 128 5 266c0 115 1 213 -2 328c-1 43 -23 60 -79 84h245c-62 -24 -85 -41 -85 -84v-47c34 1 72 2 106 2c157 0 253 -71 253 -193c0 -130 -100 -217 -233 -217c-18 0 -38 2 -54 9c-14 6 -27 15 -34 30c20 -5 44 -7 65 -7
c102 0 172 61 172 162c0 111 -66 184 -190 184c-29 0 -54 -1 -71 -5c-9 -2 -14 -8 -14 -19v-227c0 -137 1 -214 5 -263c3 -34 23 -57 76 -75h-238z" />
    <glyph glyph-name="Uacute" unicode="&#xda;" horiz-adv-x="852" 
d="M387 785l102 132c15 0 32 -2 49 -4c18 -3 36 -7 51 -12c-65 -34 -136 -77 -192 -116h-10zM435 -8c-159 0 -290 77 -290 261c0 161 1 299 -2 413c-1 43 -23 60 -79 84h254c-70 -20 -90 -41 -90 -84v-408c0 -149 95 -223 227 -223s223 68 222 214c-1 136 -2 276 -2 417
c0 45 -30 65 -94 84h215c-65 -24 -80 -41 -80 -84v-415c0 -180 -122 -259 -281 -259z" />
    <glyph glyph-name="Ucircumflex" unicode="&#xdb;" horiz-adv-x="852" 
d="M326 766l82 153c14 3 28 4 41 4c14 0 26 -1 40 -4l82 -153h-13c-30 38 -68 80 -109 117c-42 -37 -80 -79 -110 -117h-13zM435 -8c-159 0 -290 77 -290 261c0 161 1 299 -2 413c-1 43 -23 60 -79 84h254c-70 -20 -90 -41 -90 -84v-408c0 -149 95 -223 227 -223
s223 68 222 214c-1 136 -2 276 -2 417c0 45 -30 65 -94 84h215c-65 -24 -80 -41 -80 -84v-415c0 -180 -122 -259 -281 -259z" />
    <glyph glyph-name="Udieresis" unicode="&#xdc;" horiz-adv-x="852" 
d="M356 802c-26 0 -41 18 -41 40c0 24 16 40 41 40c23 0 41 -13 41 -38c0 -27 -18 -42 -41 -42zM540 802c-26 0 -40 18 -40 40c0 24 15 40 40 40c24 0 42 -13 42 -38c0 -27 -18 -42 -42 -42zM435 -8c-159 0 -290 77 -290 261c0 161 1 299 -2 413c-1 43 -23 60 -79 84h254
c-70 -20 -90 -41 -90 -84v-408c0 -149 95 -223 227 -223s223 68 222 214c-1 136 -2 276 -2 417c0 45 -30 65 -94 84h215c-65 -24 -80 -41 -80 -84v-415c0 -180 -122 -259 -281 -259z" />
    <glyph glyph-name="Udieresis.ss08" horiz-adv-x="872" 
d="M445 -8c-173 0 -300 78 -300 266c0 161 1 294 -2 408c-1 43 -23 60 -79 84h249c-62 -24 -85 -41 -85 -84v-410c0 -147 87 -220 230 -220c145 0 240 73 239 224c-1 131 -2 265 -2 406c0 43 -30 61 -89 84h210c-65 -24 -80 -41 -80 -84v-404c0 -185 -122 -270 -291 -270z
M376 662c-26 0 -41 18 -41 40c0 24 16 40 41 40c23 0 41 -13 41 -38c0 -27 -18 -42 -41 -42zM540 662c-26 0 -40 18 -40 40c0 24 15 40 40 40c24 0 42 -13 42 -38c0 -27 -18 -42 -42 -42z" />
    <glyph glyph-name="Ugrave" unicode="&#xd9;" horiz-adv-x="852" 
d="M500 788c-56 39 -127 82 -192 116c15 5 33 10 51 12c17 2 34 4 49 4l102 -132h-10zM435 -8c-159 0 -290 77 -290 261c0 161 1 299 -2 413c-1 43 -23 60 -79 84h254c-70 -20 -90 -41 -90 -84v-408c0 -149 95 -223 227 -223s223 68 222 214c-1 136 -2 276 -2 417
c0 45 -30 65 -94 84h215c-65 -24 -80 -41 -80 -84v-415c0 -180 -122 -259 -281 -259z" />
    <glyph glyph-name="Wacute" unicode="&#x1e82;" horiz-adv-x="1104" 
d="M501 785l102 132c15 0 32 -2 49 -4c18 -3 36 -7 51 -12c-65 -34 -136 -77 -192 -116h-10zM292 0c-11 41 -29 103 -40 139l-146 493c-20 67 -42 100 -94 118h225c-36 -12 -61 -27 -61 -57c0 -15 4 -35 12 -61l140 -482h4l181 486c14 37 26 71 37 108h26
c14 -36 27 -77 41 -113l188 -491h4l142 506c5 17 7 31 7 43c0 28 -31 42 -78 61h212c-54 -19 -78 -42 -97 -110l-142 -500c-11 -37 -27 -95 -40 -140h-44c-12 44 -27 87 -44 131l-178 453h-5l-166 -439c-14 -37 -32 -100 -46 -145h-38z" />
    <glyph glyph-name="Wcircumflex" unicode="&#x174;" horiz-adv-x="1104" 
d="M440 766l82 153c14 3 28 4 41 4c14 0 26 -1 40 -4l82 -153h-13c-30 38 -68 80 -109 117c-42 -37 -80 -79 -110 -117h-13zM292 0c-11 41 -29 103 -40 139l-146 493c-20 67 -42 100 -94 118h225c-36 -12 -61 -27 -61 -57c0 -15 4 -35 12 -61l140 -482h4l181 486
c14 37 26 71 37 108h26c14 -36 27 -77 41 -113l188 -491h4l142 506c5 17 7 31 7 43c0 28 -31 42 -78 61h212c-54 -19 -78 -42 -97 -110l-142 -500c-11 -37 -27 -95 -40 -140h-44c-12 44 -27 87 -44 131l-178 453h-5l-166 -439c-14 -37 -32 -100 -46 -145h-38z" />
    <glyph glyph-name="Wdieresis" unicode="&#x1e84;" horiz-adv-x="1104" 
d="M470 802c-26 0 -41 18 -41 40c0 24 16 40 41 40c23 0 41 -13 41 -38c0 -27 -18 -42 -41 -42zM654 802c-26 0 -40 18 -40 40c0 24 15 40 40 40c24 0 42 -13 42 -38c0 -27 -18 -42 -42 -42zM292 0c-11 41 -29 103 -40 139l-146 493c-20 67 -42 100 -94 118h225
c-36 -12 -61 -27 -61 -57c0 -15 4 -35 12 -61l140 -482h4l181 486c14 37 26 71 37 108h26c14 -36 27 -77 41 -113l188 -491h4l142 506c5 17 7 31 7 43c0 28 -31 42 -78 61h212c-54 -19 -78 -42 -97 -110l-142 -500c-11 -37 -27 -95 -40 -140h-44c-12 44 -27 87 -44 131
l-178 453h-5l-166 -439c-14 -37 -32 -100 -46 -145h-38z" />
    <glyph glyph-name="Wgrave" unicode="&#x1e80;" horiz-adv-x="1104" 
d="M614 788c-56 39 -127 82 -192 116c15 5 33 10 51 12c17 2 34 4 49 4l102 -132h-10zM292 0c-11 41 -29 103 -40 139l-146 493c-20 67 -42 100 -94 118h225c-36 -12 -61 -27 -61 -57c0 -15 4 -35 12 -61l140 -482h4l181 486c14 37 26 71 37 108h26c14 -36 27 -77 41 -113
l188 -491h4l142 506c5 17 7 31 7 43c0 28 -31 42 -78 61h212c-54 -19 -78 -42 -97 -110l-142 -500c-11 -37 -27 -95 -40 -140h-44c-12 44 -27 87 -44 131l-178 453h-5l-166 -439c-14 -37 -32 -100 -46 -145h-38z" />
    <glyph glyph-name="Yacute" unicode="&#xdd;" horiz-adv-x="590" 
d="M254 785l102 132c15 0 32 -2 49 -4c18 -3 36 -7 51 -12c-65 -34 -136 -77 -192 -116h-10zM183 0c52 17 70 39 73 72c4 47 5 99 5 175v73c-9 21 -21 46 -29 60l-164 292c-18 31 -36 56 -80 78h186c-25 -10 -35 -24 -35 -41c0 -10 3 -20 9 -31l169 -306h4l161 308
c5 10 8 19 8 28c0 18 -13 32 -44 42h160c-46 -15 -63 -39 -81 -73l-185 -340c0 -135 1 -203 5 -262c2 -34 23 -57 76 -75h-238z" />
    <glyph glyph-name="Ycircumflex" unicode="&#x176;" horiz-adv-x="590" 
d="M193 766l82 153c14 3 28 4 41 4c14 0 26 -1 40 -4l82 -153h-13c-30 38 -68 80 -109 117c-42 -37 -80 -79 -110 -117h-13zM183 0c52 17 70 39 73 72c4 47 5 99 5 175v73c-9 21 -21 46 -29 60l-164 292c-18 31 -36 56 -80 78h186c-25 -10 -35 -24 -35 -41
c0 -10 3 -20 9 -31l169 -306h4l161 308c5 10 8 19 8 28c0 18 -13 32 -44 42h160c-46 -15 -63 -39 -81 -73l-185 -340c0 -135 1 -203 5 -262c2 -34 23 -57 76 -75h-238z" />
    <glyph glyph-name="Ydieresis" unicode="&#x178;" horiz-adv-x="590" 
d="M223 802c-26 0 -41 18 -41 40c0 24 16 40 41 40c23 0 41 -13 41 -38c0 -27 -18 -42 -41 -42zM407 802c-26 0 -40 18 -40 40c0 24 15 40 40 40c24 0 42 -13 42 -38c0 -27 -18 -42 -42 -42zM183 0c52 17 70 39 73 72c4 47 5 99 5 175v73c-9 21 -21 46 -29 60l-164 292
c-18 31 -36 56 -80 78h186c-25 -10 -35 -24 -35 -41c0 -10 3 -20 9 -31l169 -306h4l161 308c5 10 8 19 8 28c0 18 -13 32 -44 42h160c-46 -15 -63 -39 -81 -73l-185 -340c0 -135 1 -203 5 -262c2 -34 23 -57 76 -75h-238z" />
    <glyph glyph-name="Ygrave" unicode="&#x1ef2;" horiz-adv-x="590" 
d="M367 788c-56 39 -127 82 -192 116c15 5 33 10 51 12c17 2 34 4 49 4l102 -132h-10zM183 0c52 17 70 39 73 72c4 47 5 99 5 175v73c-9 21 -21 46 -29 60l-164 292c-18 31 -36 56 -80 78h186c-25 -10 -35 -24 -35 -41c0 -10 3 -20 9 -31l169 -306h4l161 308c5 10 8 19 8 28
c0 18 -13 32 -44 42h160c-46 -15 -63 -39 -81 -73l-185 -340c0 -135 1 -203 5 -262c2 -34 23 -57 76 -75h-238z" />
    <glyph glyph-name="Zcaron" unicode="&#x17d;" horiz-adv-x="612" 
d="M267 782l-79 148h12c29 -36 66 -77 106 -112c39 35 76 76 105 112h12l-79 -148c-13 -2 -25 -3 -38 -3s-26 1 -39 3zM582 -2c-28 1 -51 2 -83 2h-477l455 714h-342c-60 0 -78 -20 -119 -114v154c25 -2 51 -4 78 -4h486l-445 -714h334c70 0 91 39 127 118z" />
    <glyph glyph-name="AE" unicode="&#xc6;" horiz-adv-x="1006" 
d="M833 36c60 0 81 39 117 108l-14 -146c-28 1 -51 2 -83 2h-344c60 27 70 49 73 82c3 35 5 94 5 194h-271l-130 -170c-21 -27 -30 -47 -30 -63c0 -22 18 -35 45 -43h-201c64 22 95 49 142 110l390 510c14 18 31 41 48 64c-9 26 -32 43 -74 66h332c27 0 53 2 78 4v-144
c-34 69 -51 104 -109 104h-141v-299h150c30 0 54 5 79 14l-10 -106c-16 40 -26 57 -60 57h-159v-42c0 -137 1 -207 5 -256c4 -33 17 -46 54 -46h108zM342 310h245v28c0 104 1 186 -1 285h-5z" />
    <glyph glyph-name="OE" unicode="&#x152;" horiz-adv-x="1109" 
d="M936 36c60 0 81 39 117 108l-14 -146c-28 1 -51 2 -83 2h-406c-26 -5 -54 -8 -82 -8c-209 0 -388 143 -388 372c0 223 157 396 388 396c33 0 64 -3 94 -10h379c27 0 53 2 78 4v-144c-34 69 -51 104 -109 104h-248c108 -57 183 -163 194 -299h63c30 0 54 5 79 11l-10 -103
c-16 40 -26 57 -60 57h-71c-1 -155 -82 -281 -204 -344h283zM173 386c0 -198 123 -353 315 -353c180 0 276 145 276 327c0 200 -125 357 -313 357c-178 0 -278 -145 -278 -331z" />
    <glyph glyph-name="aacute" unicode="&#xe1;" horiz-adv-x="496" 
d="M184 557l64 171c12 2 26 3 41 3c16 0 31 -1 45 -3c-52 -50 -102 -114 -139 -171h-11zM176 -8c-74 0 -124 41 -124 111c0 76 59 103 131 118l127 26c2 28 4 65 4 106c0 61 -28 89 -95 89c-63 0 -114 -20 -160 -66c0 26 7 49 20 66c26 35 78 55 144 55
c100 0 154 -44 154 -135c0 -88 -10 -190 -10 -274c0 -27 13 -44 41 -44c24 0 39 8 52 21c0 -19 -5 -37 -16 -50c-12 -14 -31 -23 -58 -23c-48 0 -78 32 -78 84c0 79 1 109 1 135l-128 -15c-40 -5 -69 -21 -69 -65c0 -57 40 -87 94 -87c45 0 77 11 101 32
c-19 -49 -57 -84 -131 -84z" />
    <glyph glyph-name="acircumflex" unicode="&#xe2;" horiz-adv-x="496" 
d="M108 557l79 171c13 3 26 4 39 4s25 -1 38 -4l79 -171h-12c-29 42 -66 89 -105 130c-40 -41 -77 -88 -106 -130h-12zM176 -8c-74 0 -124 41 -124 111c0 76 59 103 131 118l127 26c2 28 4 65 4 106c0 61 -28 89 -95 89c-63 0 -114 -20 -160 -66c0 26 7 49 20 66
c26 35 78 55 144 55c100 0 154 -44 154 -135c0 -88 -10 -190 -10 -274c0 -27 13 -44 41 -44c24 0 39 8 52 21c0 -19 -5 -37 -16 -50c-12 -14 -31 -23 -58 -23c-48 0 -78 32 -78 84c0 79 1 109 1 135l-128 -15c-40 -5 -69 -21 -69 -65c0 -57 40 -87 94 -87c45 0 77 11 101 32
c-19 -49 -57 -84 -131 -84z" />
    <glyph glyph-name="adieresis" unicode="&#xe4;" horiz-adv-x="496" 
d="M134 609c-27 0 -42 19 -42 42c0 25 16 42 42 42c24 0 43 -14 43 -40c0 -28 -19 -44 -43 -44zM316 609c-27 0 -42 19 -42 42c0 25 16 42 42 42c25 0 43 -14 43 -40c0 -28 -18 -44 -43 -44zM176 -8c-74 0 -124 41 -124 111c0 76 59 103 131 118l127 26c2 28 4 65 4 106
c0 61 -28 89 -95 89c-63 0 -114 -20 -160 -66c0 26 7 49 20 66c26 35 78 55 144 55c100 0 154 -44 154 -135c0 -88 -10 -190 -10 -274c0 -27 13 -44 41 -44c24 0 39 8 52 21c0 -19 -5 -37 -16 -50c-12 -14 -31 -23 -58 -23c-48 0 -78 32 -78 84c0 79 1 109 1 135l-128 -15
c-40 -5 -69 -21 -69 -65c0 -57 40 -87 94 -87c45 0 77 11 101 32c-19 -49 -57 -84 -131 -84z" />
    <glyph glyph-name="agrave" unicode="&#xe0;" horiz-adv-x="496" 
d="M243 557c-37 57 -87 121 -139 171c14 2 29 3 45 3c15 0 29 -1 41 -3l64 -171h-11zM176 -8c-74 0 -124 41 -124 111c0 76 59 103 131 118l127 26c2 28 4 65 4 106c0 61 -28 89 -95 89c-63 0 -114 -20 -160 -66c0 26 7 49 20 66c26 35 78 55 144 55c100 0 154 -44 154 -135
c0 -88 -10 -190 -10 -274c0 -27 13 -44 41 -44c24 0 39 8 52 21c0 -19 -5 -37 -16 -50c-12 -14 -31 -23 -58 -23c-48 0 -78 32 -78 84c0 79 1 109 1 135l-128 -15c-40 -5 -69 -21 -69 -65c0 -57 40 -87 94 -87c45 0 77 11 101 32c-19 -49 -57 -84 -131 -84z" />
    <glyph glyph-name="aring" unicode="&#xe5;" horiz-adv-x="496" 
d="M225 561c-49 0 -84 37 -84 83s35 83 84 83c50 0 85 -37 85 -83s-35 -83 -85 -83zM225 577c27 0 43 29 43 67s-16 67 -43 67c-26 0 -42 -29 -42 -67s16 -67 42 -67zM176 -8c-74 0 -124 41 -124 111c0 76 59 103 131 118l127 26c2 28 4 65 4 106c0 61 -28 89 -95 89
c-63 0 -114 -20 -160 -66c0 26 7 49 20 66c26 35 78 55 144 55c100 0 154 -44 154 -135c0 -88 -10 -190 -10 -274c0 -27 13 -44 41 -44c24 0 39 8 52 21c0 -19 -5 -37 -16 -50c-12 -14 -31 -23 -58 -23c-48 0 -78 32 -78 84c0 79 1 109 1 135l-128 -15
c-40 -5 -69 -21 -69 -65c0 -57 40 -87 94 -87c45 0 77 11 101 32c-19 -49 -57 -84 -131 -84z" />
    <glyph glyph-name="atilde" unicode="&#xe3;" horiz-adv-x="496" 
d="M86 567v28c0 51 30 81 77 81c53 0 93 -17 136 -17c33 0 49 18 62 44c1 -10 2 -24 2 -33c0 -42 -20 -70 -70 -70c-51 0 -92 16 -136 16c-34 0 -55 -19 -71 -49zM176 -8c-74 0 -124 41 -124 111c0 76 59 103 131 118l127 26c2 28 4 65 4 106c0 61 -28 89 -95 89
c-63 0 -114 -20 -160 -66c0 26 7 49 20 66c26 35 78 55 144 55c100 0 154 -44 154 -135c0 -88 -10 -190 -10 -274c0 -27 13 -44 41 -44c24 0 39 8 52 21c0 -19 -5 -37 -16 -50c-12 -14 -31 -23 -58 -23c-48 0 -78 32 -78 84c0 79 1 109 1 135l-128 -15
c-40 -5 -69 -21 -69 -65c0 -57 40 -87 94 -87c45 0 77 11 101 32c-19 -49 -57 -84 -131 -84z" />
    <glyph glyph-name="ccedilla" unicode="&#xe7;" horiz-adv-x="460" 
d="M288 -8h-10l-27 -59c64 -5 100 -25 100 -75c0 -54 -40 -85 -94 -85c-20 0 -40 3 -54 11c-16 9 -27 21 -33 39c22 -13 45 -21 72 -21c35 0 58 18 58 53c0 36 -29 55 -82 55l46 83c-115 10 -208 90 -208 243c0 166 106 261 238 261c55 0 99 -12 134 -27c3 -28 7 -56 10 -84
c-45 45 -101 76 -163 76c-93 0 -147 -84 -147 -190c0 -141 67 -229 185 -229c56 0 99 15 131 34c-15 -60 -82 -85 -156 -85z" />
    <glyph glyph-name="eth" unicode="&#xf0;" horiz-adv-x="577" 
d="M347 636c111 -73 174 -195 174 -351c0 -179 -83 -285 -230 -285c-137 0 -227 92 -227 233c0 134 86 233 218 233c74 0 114 -29 140 -53l3 2c-14 64 -56 138 -124 192l-134 -82l-20 33l120 73c-48 31 -107 51 -176 56v24c84 -3 157 -22 219 -53l103 63l20 -32zM307 26
c86 0 143 78 143 185c0 122 -51 227 -160 227c-90 0 -148 -84 -148 -195c0 -125 66 -217 165 -217z" />
    <glyph glyph-name="eacute" unicode="&#xe9;" horiz-adv-x="510" 
d="M229 557l64 171c12 2 26 3 41 3c16 0 31 -1 45 -3c-52 -50 -102 -114 -139 -171h-11zM288 -8c-146 0 -232 96 -232 243c0 153 91 262 221 262c112 0 182 -67 182 -193c0 -7 -1 -14 -1 -21h-332c-1 -9 -1 -18 -1 -26c0 -118 60 -211 183 -211c62 0 104 15 142 35
c-5 -22 -17 -40 -34 -55c-27 -22 -69 -34 -128 -34zM127 303l258 12c-1 82 -44 143 -126 143s-125 -74 -132 -155z" />
    <glyph glyph-name="ecircumflex" unicode="&#xea;" horiz-adv-x="510" 
d="M153 557l79 171c13 3 26 4 39 4s25 -1 38 -4l79 -171h-12c-29 42 -66 89 -105 130c-40 -41 -77 -88 -106 -130h-12zM288 -8c-146 0 -232 96 -232 243c0 153 91 262 221 262c112 0 182 -67 182 -193c0 -7 -1 -14 -1 -21h-332c-1 -9 -1 -18 -1 -26c0 -118 60 -211 183 -211
c62 0 104 15 142 35c-5 -22 -17 -40 -34 -55c-27 -22 -69 -34 -128 -34zM127 303l258 12c-1 82 -44 143 -126 143s-125 -74 -132 -155z" />
    <glyph glyph-name="edieresis" unicode="&#xeb;" horiz-adv-x="510" 
d="M179 609c-27 0 -42 19 -42 42c0 25 16 42 42 42c24 0 43 -14 43 -40c0 -28 -19 -44 -43 -44zM361 609c-27 0 -42 19 -42 42c0 25 16 42 42 42c25 0 43 -14 43 -40c0 -28 -18 -44 -43 -44zM288 -8c-146 0 -232 96 -232 243c0 153 91 262 221 262c112 0 182 -67 182 -193
c0 -7 -1 -14 -1 -21h-332c-1 -9 -1 -18 -1 -26c0 -118 60 -211 183 -211c62 0 104 15 142 35c-5 -22 -17 -40 -34 -55c-27 -22 -69 -34 -128 -34zM127 303l258 12c-1 82 -44 143 -126 143s-125 -74 -132 -155z" />
    <glyph glyph-name="egrave" unicode="&#xe8;" horiz-adv-x="510" 
d="M288 557c-37 57 -87 121 -139 171c14 2 29 3 45 3c15 0 29 -1 41 -3l64 -171h-11zM288 -8c-146 0 -232 96 -232 243c0 153 91 262 221 262c112 0 182 -67 182 -193c0 -7 -1 -14 -1 -21h-332c-1 -9 -1 -18 -1 -26c0 -118 60 -211 183 -211c62 0 104 15 142 35
c-5 -22 -17 -40 -34 -55c-27 -22 -69 -34 -128 -34zM127 303l258 12c-1 82 -44 143 -126 143s-125 -74 -132 -155z" />
    <glyph glyph-name="iacute" unicode="&#xed;" horiz-adv-x="270" 
d="M86 557l64 171c12 2 26 3 41 3c16 0 31 -1 45 -3c-52 -50 -102 -114 -139 -171h-11zM44 0c44 21 60 44 60 84v299c-18 21 -37 41 -55 62l119 52v-413c0 -40 14 -63 62 -84h-186z" />
    <glyph glyph-name="icircumflex" unicode="&#xee;" horiz-adv-x="270" 
d="M10 557l79 171c13 3 26 4 39 4s25 -1 38 -4l79 -171h-12c-29 42 -66 89 -105 130c-40 -41 -77 -88 -106 -130h-12zM44 0c44 21 60 44 60 84v299c-18 21 -37 41 -55 62l119 52v-413c0 -40 14 -63 62 -84h-186z" />
    <glyph glyph-name="idieresis" unicode="&#xef;" horiz-adv-x="270" 
d="M36 609c-27 0 -42 19 -42 42c0 25 16 42 42 42c24 0 43 -14 43 -40c0 -28 -19 -44 -43 -44zM218 609c-27 0 -42 19 -42 42c0 25 16 42 42 42c25 0 43 -14 43 -40c0 -28 -18 -44 -43 -44zM44 0c44 21 60 44 60 84v299c-18 21 -37 41 -55 62l119 52v-413
c0 -40 14 -63 62 -84h-186z" />
    <glyph glyph-name="idotless" unicode="&#x131;" horiz-adv-x="270" 
d="M44 0c44 21 60 44 60 84v299c-18 21 -37 41 -55 62l119 52v-413c0 -40 14 -63 62 -84h-186z" />
    <glyph glyph-name="igrave" unicode="&#xec;" horiz-adv-x="270" 
d="M145 557c-37 57 -87 121 -139 171c14 2 29 3 45 3c15 0 29 -1 41 -3l64 -171h-11zM44 0c44 21 60 44 60 84v299c-18 21 -37 41 -55 62l119 52v-413c0 -40 14 -63 62 -84h-186z" />
    <glyph glyph-name="jdotless" horiz-adv-x="298" 
d="M66 -226c-30 0 -55 8 -73 23s-29 35 -29 54c28 -25 58 -37 91 -37c49 0 71 32 71 82v487c-18 21 -37 41 -55 62l119 52v-583c0 -84 -43 -140 -124 -140z" />
    <glyph glyph-name="lslash" unicode="&#x142;" horiz-adv-x="260" 
d="M252 428l-93 -100v-244c0 -40 14 -63 62 -84h-186c44 21 60 44 60 84v174l-91 -98v55l91 99v352c-18 21 -37 41 -55 62l119 52v-396l93 102v-58z" />
    <glyph glyph-name="ntilde" unicode="&#xf1;" horiz-adv-x="585" 
d="M150 567v28c0 51 30 81 77 81c53 0 93 -17 136 -17c33 0 49 18 62 44c1 -10 2 -24 2 -33c0 -42 -20 -70 -70 -70c-51 0 -92 16 -136 16c-34 0 -55 -19 -71 -49zM48 0c44 21 60 44 60 84v299c-18 21 -37 41 -55 62l119 52v-413c0 -40 14 -63 62 -84h-186zM349 0
c44 21 60 44 60 84v240c0 71 -34 111 -107 111c-49 0 -92 -12 -130 -35c32 58 82 97 158 97c93 0 145 -60 145 -150v-263c0 -40 14 -63 62 -84h-188z" />
    <glyph glyph-name="oacute" unicode="&#xf3;" horiz-adv-x="574" 
d="M245 557l64 171c12 2 26 3 41 3c16 0 31 -1 45 -3c-52 -50 -102 -114 -139 -171h-11zM290 -8c-133 0 -234 97 -234 247c0 157 110 257 232 257c130 0 230 -97 230 -252c0 -150 -103 -252 -228 -252zM299 29c86 0 142 80 142 189c0 117 -52 239 -161 239
c-90 0 -147 -86 -147 -199c0 -132 67 -229 166 -229z" />
    <glyph glyph-name="ocircumflex" unicode="&#xf4;" horiz-adv-x="574" 
d="M169 557l79 171c13 3 26 4 39 4s25 -1 38 -4l79 -171h-12c-29 42 -66 89 -105 130c-40 -41 -77 -88 -106 -130h-12zM290 -8c-133 0 -234 97 -234 247c0 157 110 257 232 257c130 0 230 -97 230 -252c0 -150 -103 -252 -228 -252zM299 29c86 0 142 80 142 189
c0 117 -52 239 -161 239c-90 0 -147 -86 -147 -199c0 -132 67 -229 166 -229z" />
    <glyph glyph-name="odieresis" unicode="&#xf6;" horiz-adv-x="574" 
d="M195 609c-27 0 -42 19 -42 42c0 25 16 42 42 42c24 0 43 -14 43 -40c0 -28 -19 -44 -43 -44zM377 609c-27 0 -42 19 -42 42c0 25 16 42 42 42c25 0 43 -14 43 -40c0 -28 -18 -44 -43 -44zM290 -8c-133 0 -234 97 -234 247c0 157 110 257 232 257c130 0 230 -97 230 -252
c0 -150 -103 -252 -228 -252zM299 29c86 0 142 80 142 189c0 117 -52 239 -161 239c-90 0 -147 -86 -147 -199c0 -132 67 -229 166 -229z" />
    <glyph glyph-name="ograve" unicode="&#xf2;" horiz-adv-x="574" 
d="M304 557c-37 57 -87 121 -139 171c14 2 29 3 45 3c15 0 29 -1 41 -3l64 -171h-11zM290 -8c-133 0 -234 97 -234 247c0 157 110 257 232 257c130 0 230 -97 230 -252c0 -150 -103 -252 -228 -252zM299 29c86 0 142 80 142 189c0 117 -52 239 -161 239
c-90 0 -147 -86 -147 -199c0 -132 67 -229 166 -229z" />
    <glyph glyph-name="oslash" unicode="&#xf8;" horiz-adv-x="574" 
d="M417 458c62 -42 101 -117 101 -214c0 -150 -103 -252 -228 -252c-33 0 -64 6 -92 17l-53 -109h-42l61 126c-66 41 -108 116 -108 213c0 157 110 257 232 257c35 0 67 -7 96 -20l53 109h42zM133 258c0 -74 21 -138 57 -179l171 350c-22 18 -49 28 -81 28
c-90 0 -147 -86 -147 -199zM299 29c86 0 142 80 142 189c0 67 -17 136 -52 182l-169 -347c23 -15 49 -24 79 -24z" />
    <glyph glyph-name="otilde" unicode="&#xf5;" horiz-adv-x="574" 
d="M147 567v28c0 51 30 81 77 81c53 0 93 -17 136 -17c33 0 49 18 62 44c1 -10 2 -24 2 -33c0 -42 -20 -70 -70 -70c-51 0 -92 16 -136 16c-34 0 -55 -19 -71 -49zM290 -8c-133 0 -234 97 -234 247c0 157 110 257 232 257c130 0 230 -97 230 -252
c0 -150 -103 -252 -228 -252zM299 29c86 0 142 80 142 189c0 117 -52 239 -161 239c-90 0 -147 -86 -147 -199c0 -132 67 -229 166 -229z" />
    <glyph glyph-name="scaron" unicode="&#x161;" horiz-adv-x="436" 
d="M179 561l-79 171h12c29 -42 66 -89 106 -130c39 41 76 88 105 130h12l-79 -171c-13 -3 -25 -4 -38 -4s-26 1 -39 4zM215 -8c-78 0 -140 28 -149 94c-1 9 -2 18 -1 28c43 -54 93 -77 158 -77c60 0 101 29 101 79c0 29 -41 46 -90 66c-75 30 -170 69 -170 171
c0 95 72 144 153 144c83 0 140 -35 147 -94c1 -7 1 -16 0 -24c-41 47 -91 67 -155 67c-57 0 -99 -31 -99 -81c0 -33 45 -52 97 -74c75 -32 165 -71 165 -166c0 -81 -64 -133 -157 -133z" />
    <glyph glyph-name="germandbls" unicode="&#xdf;" horiz-adv-x="566" 
d="M331 398c0 -54 187 -90 187 -258c0 -91 -58 -148 -145 -148c-67 0 -116 32 -116 95c0 4 0 8 1 13c35 -34 75 -54 122 -54c56 0 99 32 99 85c0 93 -188 112 -188 249c0 91 110 136 110 229c0 69 -62 118 -141 118c-61 0 -90 -40 -90 -99c0 -42 7 -83 7 -142v-402
c0 -43 18 -64 63 -84h-188c44 21 61 44 61 84l-1 344h-69l4 44h64v118c0 112 63 190 168 190c94 0 167 -59 167 -147c0 -120 -115 -171 -115 -235z" />
    <glyph glyph-name="thorn" unicode="&#xfe;" horiz-adv-x="560" 
d="M35 -220c44 21 58 44 58 84v802c-18 21 -37 41 -55 62l119 52v-715c30 -18 77 -29 121 -29c105 0 163 85 163 202c0 129 -66 204 -166 204c-47 0 -87 -10 -118 -32c20 51 73 87 142 87c113 0 205 -82 205 -245c0 -156 -97 -260 -228 -260c-44 0 -88 13 -119 38v-166
c0 -40 16 -63 64 -84h-186z" />
    <glyph glyph-name="uacute" unicode="&#xfa;" horiz-adv-x="612" 
d="M255 557l64 171c12 2 26 3 41 3c16 0 31 -1 45 -3c-52 -50 -102 -114 -139 -171h-11zM266 -8c-101 0 -157 58 -157 152v241c-17 20 -36 40 -53 60l121 52v-344c0 -73 35 -109 112 -109c44 0 90 11 127 45c-19 -67 -80 -97 -150 -97zM494 -8c-48 0 -78 34 -78 83
c0 42 1 85 1 129v181c-17 20 -36 40 -53 60l121 52c-1 -73 -2 -131 -4 -189c-3 -85 -4 -203 -4 -220c0 -27 13 -44 41 -44c22 0 37 7 50 18c0 -22 -7 -40 -21 -53c-12 -11 -30 -17 -53 -17z" />
    <glyph glyph-name="ucircumflex" unicode="&#xfb;" horiz-adv-x="612" 
d="M179 557l79 171c13 3 26 4 39 4s25 -1 38 -4l79 -171h-12c-29 42 -66 89 -105 130c-40 -41 -77 -88 -106 -130h-12zM266 -8c-101 0 -157 58 -157 152v241c-17 20 -36 40 -53 60l121 52v-344c0 -73 35 -109 112 -109c44 0 90 11 127 45c-19 -67 -80 -97 -150 -97zM494 -8
c-48 0 -78 34 -78 83c0 42 1 85 1 129v181c-17 20 -36 40 -53 60l121 52c-1 -73 -2 -131 -4 -189c-3 -85 -4 -203 -4 -220c0 -27 13 -44 41 -44c22 0 37 7 50 18c0 -22 -7 -40 -21 -53c-12 -11 -30 -17 -53 -17z" />
    <glyph glyph-name="udieresis" unicode="&#xfc;" horiz-adv-x="612" 
d="M205 609c-27 0 -42 19 -42 42c0 25 16 42 42 42c24 0 43 -14 43 -40c0 -28 -19 -44 -43 -44zM387 609c-27 0 -42 19 -42 42c0 25 16 42 42 42c25 0 43 -14 43 -40c0 -28 -18 -44 -43 -44zM266 -8c-101 0 -157 58 -157 152v241c-17 20 -36 40 -53 60l121 52v-344
c0 -73 35 -109 112 -109c44 0 90 11 127 45c-19 -67 -80 -97 -150 -97zM494 -8c-48 0 -78 34 -78 83c0 42 1 85 1 129v181c-17 20 -36 40 -53 60l121 52c-1 -73 -2 -131 -4 -189c-3 -85 -4 -203 -4 -220c0 -27 13 -44 41 -44c22 0 37 7 50 18c0 -22 -7 -40 -21 -53
c-12 -11 -30 -17 -53 -17z" />
    <glyph glyph-name="ugrave" unicode="&#xf9;" horiz-adv-x="612" 
d="M314 557c-37 57 -87 121 -139 171c14 2 29 3 45 3c15 0 29 -1 41 -3l64 -171h-11zM266 -8c-101 0 -157 58 -157 152v241c-17 20 -36 40 -53 60l121 52v-344c0 -73 35 -109 112 -109c44 0 90 11 127 45c-19 -67 -80 -97 -150 -97zM494 -8c-48 0 -78 34 -78 83
c0 42 1 85 1 129v181c-17 20 -36 40 -53 60l121 52c-1 -73 -2 -131 -4 -189c-3 -85 -4 -203 -4 -220c0 -27 13 -44 41 -44c22 0 37 7 50 18c0 -22 -7 -40 -21 -53c-12 -11 -30 -17 -53 -17z" />
    <glyph glyph-name="wacute" unicode="&#x1e83;" horiz-adv-x="772" 
d="M496 728c-52 -50 -102 -114 -139 -171h-11l64 171c12 2 26 3 41 3c16 0 31 -1 45 -3zM624 486h120l-39 -65l-110 -328c-8 -25 -19 -65 -19 -93h-78c0 30 -7 60 -21 98l-93 246l-97 -251c-10 -25 -19 -65 -19 -93h-78c0 30 -9 60 -21 98l-100 319l-41 69h141l-31 -52
l107 -352h4l117 310l-9 25l-41 69h137l-31 -52l131 -352h4l112 352z" />
    <glyph glyph-name="wcircumflex" unicode="&#x175;" horiz-adv-x="772" 
d="M388 687c-40 -41 -77 -88 -106 -130h-12l79 171c13 3 26 4 39 4s25 -1 38 -4l79 -171h-12c-29 42 -66 89 -105 130zM624 486h120l-39 -65l-110 -328c-8 -25 -19 -65 -19 -93h-78c0 30 -7 60 -21 98l-93 246l-97 -251c-10 -25 -19 -65 -19 -93h-78c0 30 -9 60 -21 98
l-100 319l-41 69h141l-31 -52l107 -352h4l117 310l-9 25l-41 69h137l-31 -52l131 -352h4l112 352z" />
    <glyph glyph-name="wdieresis" unicode="&#x1e85;" horiz-adv-x="772" 
d="M296 609c-27 0 -42 19 -42 42c0 25 16 42 42 42c24 0 43 -14 43 -40c0 -28 -19 -44 -43 -44zM478 609c-27 0 -42 19 -42 42c0 25 16 42 42 42c25 0 43 -14 43 -40c0 -28 -18 -44 -43 -44zM624 486h120l-39 -65l-110 -328c-8 -25 -19 -65 -19 -93h-78c0 30 -7 60 -21 98
l-93 246l-97 -251c-10 -25 -19 -65 -19 -93h-78c0 30 -9 60 -21 98l-100 319l-41 69h141l-31 -52l107 -352h4l117 310l-9 25l-41 69h137l-31 -52l131 -352h4l112 352z" />
    <glyph glyph-name="wgrave" unicode="&#x1e81;" horiz-adv-x="772" 
d="M405 557c-37 57 -87 121 -139 171c14 2 29 3 45 3c15 0 29 -1 41 -3l64 -171h-11zM624 486h120l-39 -65l-110 -328c-8 -25 -19 -65 -19 -93h-78c0 30 -7 60 -21 98l-93 246l-97 -251c-10 -25 -19 -65 -19 -93h-78c0 30 -9 60 -21 98l-100 319l-41 69h141l-31 -52
l107 -352h4l117 310l-9 25l-41 69h137l-31 -52l131 -352h4l112 352z" />
    <glyph glyph-name="yacute" unicode="&#xfd;" horiz-adv-x="464" 
d="M215 557l64 171c12 2 26 3 41 3c16 0 31 -1 45 -3c-52 -50 -102 -114 -139 -171h-11zM106 -226c-27 0 -52 7 -71 20c-22 15 -37 40 -43 76c39 -27 74 -36 113 -36c79 0 110 66 120 140l-172 443l-45 69h155c-14 -17 -27 -35 -41 -52l134 -368h4l135 368l-55 52h132
l-41 -65l-135 -344c-16 -40 -27 -84 -38 -136c-20 -95 -52 -167 -152 -167z" />
    <glyph glyph-name="ycircumflex" unicode="&#x177;" horiz-adv-x="464" 
d="M139 557l79 171c13 3 26 4 39 4s25 -1 38 -4l79 -171h-12c-29 42 -66 89 -105 130c-40 -41 -77 -88 -106 -130h-12zM106 -226c-27 0 -52 7 -71 20c-22 15 -37 40 -43 76c39 -27 74 -36 113 -36c79 0 110 66 120 140l-172 443l-45 69h155c-14 -17 -27 -35 -41 -52
l134 -368h4l135 368l-55 52h132l-41 -65l-135 -344c-16 -40 -27 -84 -38 -136c-20 -95 -52 -167 -152 -167z" />
    <glyph glyph-name="ydieresis" unicode="&#xff;" horiz-adv-x="464" 
d="M165 609c-27 0 -42 19 -42 42c0 25 16 42 42 42c24 0 43 -14 43 -40c0 -28 -19 -44 -43 -44zM347 609c-27 0 -42 19 -42 42c0 25 16 42 42 42c25 0 43 -14 43 -40c0 -28 -18 -44 -43 -44zM106 -226c-27 0 -52 7 -71 20c-22 15 -37 40 -43 76c39 -27 74 -36 113 -36
c79 0 110 66 120 140l-172 443l-45 69h155c-14 -17 -27 -35 -41 -52l134 -368h4l135 368l-55 52h132l-41 -65l-135 -344c-16 -40 -27 -84 -38 -136c-20 -95 -52 -167 -152 -167z" />
    <glyph glyph-name="ygrave" unicode="&#x1ef3;" horiz-adv-x="464" 
d="M274 557c-37 57 -87 121 -139 171c14 2 29 3 45 3c15 0 29 -1 41 -3l64 -171h-11zM106 -226c-27 0 -52 7 -71 20c-22 15 -37 40 -43 76c39 -27 74 -36 113 -36c79 0 110 66 120 140l-172 443l-45 69h155c-14 -17 -27 -35 -41 -52l134 -368h4l135 368l-55 52h132l-41 -65
l-135 -344c-16 -40 -27 -84 -38 -136c-20 -95 -52 -167 -152 -167z" />
    <glyph glyph-name="zcaron" unicode="&#x17e;" horiz-adv-x="483" 
d="M208 561l-79 171h12c29 -42 66 -89 106 -130c39 41 76 88 105 130h12l-79 -171c-13 -3 -25 -4 -38 -4s-26 1 -39 4zM39 0l306 446h-202c-51 0 -74 -41 -107 -91l14 131h401l-309 -448h210c52 0 71 41 96 89l-12 -127h-397z" />
    <glyph glyph-name="ae" unicode="&#xe6;" horiz-adv-x="764" 
d="M712 283h-332c-1 -9 -1 -18 -1 -26c0 -118 60 -211 183 -211c62 0 104 15 142 35c-5 -22 -17 -40 -34 -55c-27 -22 -69 -34 -128 -34c-139 0 -224 87 -231 223l-130 -19c-40 -6 -69 -21 -69 -65c0 -57 40 -87 94 -87c65 0 106 25 134 58c-20 -71 -68 -110 -154 -110
c-74 0 -134 35 -134 111s59 103 131 118l127 26v6c1 4 1 8 1 12c2 25 3 55 3 88c0 61 -28 89 -95 89c-63 0 -114 -20 -160 -66c0 26 7 49 20 66c26 35 78 55 144 55c76 0 126 -26 145 -78c39 49 96 78 163 78c112 0 182 -67 182 -193c0 -7 -1 -14 -1 -21zM513 458
c-82 0 -125 -74 -132 -155l258 12c-1 82 -44 143 -126 143z" />
    <glyph glyph-name="oe" unicode="&#x153;" horiz-adv-x="903" 
d="M851 283h-332c-1 -9 -1 -18 -1 -26c0 -118 60 -211 183 -211c62 0 104 15 142 35c-5 -22 -17 -40 -34 -55c-27 -22 -69 -34 -128 -34c-94 0 -164 40 -201 108c-41 -67 -111 -108 -190 -108c-133 0 -234 97 -234 247c0 157 110 257 232 257c84 0 156 -41 196 -112
c38 70 104 113 186 113c112 0 182 -67 182 -193c0 -7 -1 -14 -1 -21zM652 458c-82 0 -125 -74 -132 -155l258 12c-1 82 -44 143 -126 143zM299 29c86 0 142 80 142 189c0 117 -52 239 -161 239c-90 0 -147 -86 -147 -199c0 -132 67 -229 166 -229z" />
    <glyph glyph-name="Delta" unicode="&#x394;" horiz-adv-x="709" 
d="M36 0l48 117l201 493c15 37 43 105 56 140h17c16 -41 37 -95 52 -131l215 -516l43 -103h-632zM104 59h460l-231 551h-4z" />
    <glyph glyph-name="Omega" unicode="&#x3a9;" horiz-adv-x="933" 
d="M82 -2l-14 146c33 -69 56 -108 112 -108h180v4c-155 76 -266 196 -266 364c0 213 157 356 369 356c211 0 370 -142 370 -358c0 -168 -114 -286 -254 -362v-4h170c56 0 83 39 116 108l-14 -146c-26 1 -48 2 -77 2h-250v42c125 56 213 176 213 348c0 200 -106 327 -279 327
c-164 0 -267 -125 -267 -311c0 -183 86 -309 240 -367v-39h-272c-29 0 -51 -1 -77 -2z" />
    <glyph glyph-name="zero" unicode="0" horiz-adv-x="644" 
d="M324 -8c-152 0 -258 105 -258 256c0 150 106 268 258 268c157 0 252 -108 252 -264c0 -144 -95 -260 -252 -260zM326 22c111 0 172 92 173 224c-1 139 -69 236 -177 236c-107 0 -178 -103 -179 -236c1 -133 79 -224 183 -224z" />
    <glyph glyph-name="one" unicode="1" horiz-adv-x="413" 
d="M82 0c63 16 94 47 94 102v306l-85 44l149 66v-416c0 -56 27 -88 84 -102h-242z" />
    <glyph glyph-name="two" unicode="2" horiz-adv-x="514" 
d="M449 -2c-29 1 -53 2 -87 2h-310v32c165 121 295 204 295 317c0 81 -48 132 -130 132c-73 0 -132 -37 -174 -116c2 43 5 77 7 110c44 24 100 40 173 40c115 0 202 -51 202 -161c0 -120 -154 -205 -281 -291v-4h198c62 0 84 16 121 75z" />
    <glyph glyph-name="three" unicode="3" horiz-adv-x="506" 
d="M189 -190c-56 0 -104 10 -150 34l-10 82c51 -50 108 -73 171 -73c88 0 141 57 141 152s-60 144 -171 161v18c101 26 147 79 147 170c0 75 -38 127 -116 127c-59 0 -113 -32 -158 -104l11 109c46 19 94 29 158 29c94 0 186 -42 186 -145c0 -95 -75 -151 -158 -183v-2
c113 -18 182 -70 182 -169c0 -121 -99 -206 -233 -206z" />
    <glyph glyph-name="four" unicode="4" horiz-adv-x="601" 
d="M346 -181v191h-324l378 496h14v-437h138v-59h-138v-191h-68zM100 69h246v300z" />
    <glyph glyph-name="five" unicode="5" horiz-adv-x="559" 
d="M240 -170c-57 0 -107 11 -151 32l-27 113c56 -62 109 -100 181 -100c97 0 155 51 155 153c0 99 -52 165 -149 165c-42 0 -78 -13 -107 -33l-38 18l6 328h248c39 0 61 22 83 47l-11 -107h-250l-27 -251c31 19 73 33 126 33c107 0 198 -60 198 -185
c0 -137 -113 -213 -237 -213z" />
    <glyph glyph-name="six" unicode="6" horiz-adv-x="612" 
d="M306 -8c-135 0 -235 106 -235 280c0 239 148 469 423 508c-17 -7 -56 -31 -72 -42c-138 -95 -244 -224 -269 -377l3 -1c43 51 101 79 180 79c124 0 200 -80 200 -211c0 -132 -101 -236 -230 -236zM313 29c91 0 145 76 145 183c0 112 -55 177 -157 177
c-55 0 -105 -15 -148 -37c-2 -18 -3 -37 -3 -54c0 -150 55 -269 163 -269z" />
    <glyph glyph-name="seven" unicode="7" horiz-adv-x="530" 
d="M57 -163l367 605h-405v64h478l-35 -67l-309 -602h-96z" />
    <glyph glyph-name="eight" unicode="8" horiz-adv-x="626" 
d="M312 -8c-118 0 -226 75 -226 207c0 106 61 161 145 192v3c-64 37 -124 94 -124 185c0 124 89 201 209 201c115 0 196 -71 196 -180c0 -93 -52 -153 -145 -188v-3c101 -52 175 -100 175 -203c0 -124 -95 -214 -230 -214zM349 419c58 29 92 85 92 164
c0 93 -55 155 -142 155c-72 0 -124 -50 -124 -128c0 -101 90 -151 174 -191zM322 27c83 0 146 59 146 150c0 105 -108 153 -218 206c-51 -33 -91 -91 -91 -175c0 -111 70 -181 163 -181z" />
    <glyph glyph-name="nine" unicode="9" horiz-adv-x="595" 
d="M115 -220c18 7 55 30 71 40c142 89 240 205 265 337l-3 1c-38 -40 -93 -67 -167 -67c-127 0 -205 79 -205 199c0 123 84 224 212 224c148 0 236 -99 236 -265c0 -227 -143 -432 -409 -469zM305 136c59 0 108 14 146 41c2 15 3 30 3 47c0 132 -49 253 -162 253
c-89 0 -142 -71 -142 -174c0 -100 55 -167 155 -167z" />
    <glyph glyph-name="zero.lf" horiz-adv-x="644" 
d="M325 -8c-161 0 -265 154 -265 376c0 220 104 393 265 393c166 0 259 -159 259 -387c0 -212 -92 -382 -259 -382zM327 26c116 0 168 139 167 339c-1 210 -57 361 -171 361c-113 0 -174 -160 -173 -361s67 -339 177 -339z" />
    <glyph glyph-name="zero.lf.ss11" horiz-adv-x="804" 
d="M401 -8c-178 0 -329 143 -329 372c0 223 132 397 329 397c186 0 331 -153 331 -379c0 -225 -144 -390 -331 -390zM411 26c145 0 227 161 227 351s-97 349 -245 349s-227 -177 -227 -354c0 -189 94 -346 245 -346z" />
    <glyph glyph-name="one.lf" horiz-adv-x="385" 
d="M69 0c45 12 76 29 79 72c4 42 5 128 5 266v334l-89 39l168 50v-126v-297c0 -137 1 -214 5 -263c3 -34 23 -57 76 -75h-244z" />
    <glyph glyph-name="two.lf" horiz-adv-x="534" 
d="M46 1v47c185 193 305 325 305 499c0 113 -52 172 -146 172c-82 0 -140 -44 -177 -133l7 136c51 24 108 39 185 39c116 0 220 -55 220 -200c0 -162 -179 -340 -320 -481v-6h240c54 0 80 28 110 75l-15 -151c-30 1 -55 3 -90 3h-319z" />
    <glyph glyph-name="three.lf" horiz-adv-x="544" 
d="M211 -9c-60 0 -110 9 -160 29l-11 122c45 -77 108 -116 190 -116c95 0 145 72 145 177c0 107 -61 169 -179 172v22c99 23 152 86 152 180c0 93 -41 148 -126 148c-74 0 -127 -43 -169 -114l7 121c44 17 100 29 165 29c119 0 211 -54 211 -163c0 -101 -81 -162 -179 -197
v-2c114 -7 207 -67 207 -184c0 -131 -112 -224 -253 -224z" />
    <glyph glyph-name="four.lf" horiz-adv-x="611" 
d="M277 0c45 12 76 29 79 72c2 26 3 69 4 119h-348l343 486l58 84h27v-143v-280v-110h123v-37h-122c1 -46 2 -87 4 -116c2 -34 23 -57 76 -75h-244zM84 228h277v390z" />
    <glyph glyph-name="five.lf" horiz-adv-x="563" 
d="M242 -9c-64 0 -118 14 -163 36l-19 117c54 -74 117 -118 196 -118c99 0 159 83 159 196s-59 181 -158 181c-48 0 -90 -13 -119 -29c-12 5 -24 9 -36 14c2 93 3 177 3 250c0 47 -3 85 -3 112h301c28 0 50 18 65 40l-8 -108h-285l-8 -267c35 15 70 23 122 23
c118 0 213 -64 214 -200c1 -148 -114 -247 -261 -247z" />
    <glyph glyph-name="six.lf" 
d="M312 -8c-134 0 -244 103 -244 293c0 214 143 438 427 476c-7 -3 -19 -9 -31 -16c-16 -9 -33 -19 -42 -25c-136 -85 -241 -208 -266 -368l3 -1c43 62 100 91 179 91c127 0 206 -88 206 -216c0 -138 -104 -234 -232 -234zM319 28c91 0 141 78 141 183
c0 109 -55 179 -157 179c-55 0 -105 -15 -147 -47c-2 -17 -3 -36 -3 -52c0 -147 58 -263 166 -263z" />
    <glyph glyph-name="seven.lf" horiz-adv-x="508" 
d="M80 0c26 48 55 97 79 145l269 531h-307c-47 0 -80 -23 -101 -62l10 136h458c-63 -160 -119 -296 -181 -451c-39 -97 -85 -204 -101 -299h-126z" />
    <glyph glyph-name="eight.lf" horiz-adv-x="633" 
d="M314 -8c-121 0 -234 73 -234 202c0 104 71 154 150 186v4c-61 35 -127 92 -127 181c0 127 97 196 218 196c117 0 206 -69 206 -175c0 -89 -60 -146 -149 -181v-3c99 -52 171 -103 171 -203c0 -121 -102 -207 -235 -207zM370 407c42 33 78 85 78 162
c0 97 -56 157 -145 157c-73 0 -124 -54 -124 -131c0 -98 86 -141 191 -188zM324 26c90 0 148 58 148 147c0 90 -111 148 -232 205c-40 -37 -80 -93 -80 -175c0 -108 69 -177 164 -177z" />
    <glyph glyph-name="nine.lf" horiz-adv-x="596" 
d="M104 -9c10 4 26 12 41 21c14 8 27 16 35 21c148 92 244 212 269 358l-3 1c-38 -45 -90 -78 -184 -78c-108 0 -206 71 -206 204c0 136 93 243 238 243c141 0 238 -110 238 -278c0 -236 -156 -453 -428 -492zM300 360c65 0 110 16 149 40c2 18 4 39 4 57
c0 149 -63 265 -168 265c-92 0 -147 -80 -147 -189c0 -102 64 -173 162 -173z" />
    <glyph glyph-name="zero.tf" 
d="M303 -8c-146 0 -245 154 -245 376c0 220 99 393 245 393c151 0 239 -159 239 -387c0 -212 -87 -382 -239 -382zM305 26c102 0 150 139 148 339c-1 210 -52 361 -152 361c-99 0 -156 -160 -154 -361c1 -201 62 -339 158 -339z" />
    <glyph glyph-name="one.tf" 
d="M157 0c59 15 91 39 94 82c3 46 5 118 5 256v325l-101 46l180 52v-126v-297c0 -137 1 -204 5 -253c3 -41 28 -66 91 -85h-274z" />
    <glyph glyph-name="two.tf" 
d="M86 1v47c171 186 298 299 298 489c0 123 -49 182 -143 182c-76 0 -134 -44 -171 -133l7 136c51 24 108 39 179 39c114 0 218 -55 218 -200c0 -172 -187 -352 -314 -486v-6h232c54 0 80 28 110 80l-15 -151c-30 1 -55 3 -90 3h-311z" />
    <glyph glyph-name="three.tf" 
d="M258 -9c-60 0 -110 9 -160 29l-11 122c45 -77 108 -116 180 -116c97 0 144 71 144 177c0 107 -59 166 -190 175v19c113 26 163 89 163 182s-49 146 -125 146c-74 0 -122 -43 -159 -114l7 121c47 17 103 29 165 29c109 0 204 -54 204 -163c0 -100 -84 -162 -182 -197v-2
c114 -13 210 -67 210 -184c0 -141 -115 -224 -246 -224z" />
    <glyph glyph-name="four.tf" 
d="M261 0c45 12 76 29 79 72c2 26 3 69 4 119h-316l311 486c16 25 35 56 50 84h35v-143v-280v-112h123v-35h-122c1 -46 2 -87 4 -116c2 -34 23 -57 76 -75h-244zM97 226h248v392z" />
    <glyph glyph-name="five.tf" 
d="M262 -9c-64 0 -113 14 -158 36l-19 117c54 -74 112 -118 191 -118c89 0 149 83 149 196c0 118 -59 186 -153 186c-46 0 -87 -11 -108 -28l-42 14c2 96 3 171 3 244c0 47 -3 85 -3 112h291c28 0 50 18 65 40l-8 -108h-275l-13 -263c31 16 69 24 122 24
c108 0 208 -58 209 -201c1 -148 -114 -251 -251 -251z" />
    <glyph glyph-name="six.tf" 
d="M312 -8c-123 0 -237 103 -237 293c0 214 132 438 410 476c-6 -3 -18 -9 -30 -16c-16 -9 -32 -19 -41 -25c-131 -89 -227 -208 -251 -368l3 -1c42 62 99 91 170 91c119 0 195 -87 195 -215c0 -127 -94 -235 -219 -235zM325 28c80 0 121 74 121 183c0 105 -54 179 -150 179
c-50 0 -92 -15 -133 -47c-2 -17 -3 -36 -3 -52c0 -172 74 -263 165 -263z" />
    <glyph glyph-name="seven.tf" 
d="M128 0c25 48 52 97 77 145l272 531h-305c-46 0 -79 -23 -99 -62l9 136h444c-61 -160 -111 -296 -172 -451c-38 -97 -82 -204 -98 -299h-128z" />
    <glyph glyph-name="eight.tf" 
d="M300 -8c-105 0 -221 63 -221 197c0 104 64 159 144 188v4c-58 38 -123 95 -123 184c0 127 95 196 204 196c108 0 195 -69 195 -175c0 -89 -56 -146 -150 -180v-3c103 -53 174 -104 174 -204c0 -121 -101 -207 -223 -207zM341 408c45 32 81 86 81 163
c0 97 -55 155 -136 155c-61 0 -111 -54 -111 -131c0 -98 87 -144 166 -187zM320 25c78 0 133 57 133 146c0 90 -116 150 -223 203c-36 -36 -72 -84 -72 -166c0 -113 73 -183 162 -183z" />
    <glyph glyph-name="nine.tf" 
d="M103 -9c10 4 25 12 40 21l34 21c146 91 230 212 254 358l-3 1c-37 -45 -88 -78 -170 -78c-92 0 -191 73 -191 206c0 134 89 241 222 241s226 -110 226 -278c0 -236 -146 -453 -412 -492zM295 362c54 0 98 14 136 38c2 18 4 39 4 57c0 149 -56 265 -155 265
c-80 0 -130 -76 -130 -185c0 -110 63 -175 145 -175z" />
    <glyph glyph-name="zero.tosf" 
d="M303 -8c-142 0 -240 105 -240 256c0 150 98 268 240 268c147 0 234 -108 234 -264c0 -144 -87 -260 -234 -260zM305 22c101 0 154 92 154 224c0 139 -60 236 -158 236c-97 0 -160 -103 -160 -236s70 -224 164 -224z" />
    <glyph glyph-name="one.tosf" 
d="M193 0c63 16 94 47 94 102v306l-41 21l-44 23l149 66v-416c0 -56 27 -88 84 -102h-242z" />
    <glyph glyph-name="two.tosf" 
d="M490 -2c-28 1 -51 2 -84 2h-298v32c159 121 284 204 284 317c0 81 -46 132 -125 132c-71 0 -127 -37 -168 -116c2 43 5 77 7 110c42 24 96 40 166 40c111 0 195 -51 195 -161c0 -120 -148 -205 -271 -291v-4h191c59 0 81 16 116 75z" />
    <glyph glyph-name="three.tosf" 
d="M242 -190c-57 0 -106 10 -153 34l-10 82c52 -50 110 -73 174 -73c90 0 144 57 144 152s-61 144 -175 161v18c103 26 150 79 150 170c0 75 -38 127 -118 127c-60 0 -115 -32 -161 -104l11 109c47 19 96 29 161 29c96 0 190 -42 190 -145c0 -95 -77 -151 -161 -183v-2
c115 -18 185 -70 185 -169c0 -121 -101 -206 -237 -206z" />
    <glyph glyph-name="four.tosf" 
d="M356 -181v191h-312l364 496h13v-437h133v-59h-133v-191h-65zM119 69h237v300z" />
    <glyph glyph-name="five.tosf" 
d="M266 -170c-55 0 -103 11 -145 32l-26 113c53 -62 104 -100 174 -100c93 0 149 51 149 153c0 99 -50 165 -144 165c-40 0 -75 -13 -102 -33l-37 18l6 328h238c38 0 59 22 80 47l-11 -107h-240l-26 -251c30 19 70 33 121 33c103 0 191 -60 191 -185
c0 -137 -109 -213 -228 -213z" />
    <glyph glyph-name="six.tosf" 
d="M306 -8c-130 0 -226 106 -226 280c0 239 143 469 407 508c-16 -7 -54 -31 -69 -42c-133 -95 -235 -224 -259 -377l3 -1c41 51 97 79 173 79c119 0 192 -80 192 -211c0 -132 -97 -236 -221 -236zM313 29c87 0 139 76 139 183c0 112 -52 177 -151 177
c-52 0 -101 -15 -142 -37c-2 -18 -3 -37 -3 -54c0 -150 53 -269 157 -269z" />
    <glyph glyph-name="seven.tosf" 
d="M108 -163l353 605h-390v64h460l-34 -67l-297 -602h-92z" />
    <glyph glyph-name="eight.tosf" 
d="M298 -8c-113 0 -217 75 -217 207c0 106 58 161 139 192v3c-61 37 -119 94 -119 185c0 124 85 201 201 201c110 0 188 -71 188 -180c0 -93 -50 -153 -139 -188v-3c97 -52 168 -100 168 -203c0 -124 -91 -214 -221 -214zM334 419c55 29 88 85 88 164c0 93 -53 155 -136 155
c-70 0 -120 -50 -120 -128c0 -101 87 -151 168 -191zM308 27c79 0 140 59 140 150c0 105 -104 153 -210 206c-49 -33 -87 -91 -87 -175c0 -111 67 -181 157 -181z" />
    <glyph glyph-name="nine.tosf" 
d="M119 -220c17 7 52 30 68 40c136 89 231 205 255 337l-3 1c-37 -40 -90 -67 -161 -67c-122 0 -197 79 -197 199c0 123 81 224 204 224c142 0 227 -99 227 -265c0 -227 -138 -432 -393 -469zM301 136c57 0 104 14 141 41c2 15 3 30 3 47c0 132 -48 253 -156 253
c-86 0 -137 -71 -137 -174c0 -100 53 -167 149 -167z" />
    <glyph glyph-name="cent" unicode="&#xa2;" horiz-adv-x="440" 
d="M313 81c56 0 99 15 131 34c-15 -60 -82 -85 -156 -85h-6v-133h-39v137c-105 17 -187 97 -187 240c0 148 85 240 197 258v148h39v-145h2c55 0 99 -12 134 -27c3 -28 7 -56 10 -84c-45 45 -101 76 -163 76c-93 0 -147 -84 -147 -190c0 -141 67 -229 185 -229z" />
    <glyph glyph-name="currency" unicode="&#xa4;" horiz-adv-x="630" 
d="M135 6l-38 33l56 60c-41 36 -65 85 -65 150c0 63 23 113 62 152l-59 66l37 30l59 -65c36 21 82 33 131 33c50 0 92 -11 125 -30l57 62l37 -26l-55 -65c39 -37 60 -88 60 -154c0 -61 -22 -111 -60 -148l57 -65l-39 -33l-58 67c-32 -19 -74 -30 -124 -30
c-49 0 -91 10 -124 29zM317 74c86 0 146 71 145 173c-1 108 -59 183 -148 183c-82 0 -151 -80 -150 -183s68 -173 153 -173z" />
    <glyph glyph-name="dollar" unicode="$" horiz-adv-x="523" 
d="M463 207c0 -93 -68 -157 -181 -173v-137h-39v133h-21c-48 0 -95 5 -138 22c-13 6 -16 11 -16 22c0 16 5 73 8 121c26 -93 73 -134 168 -134c93 0 147 44 146 118c-1 73 -67 119 -141 169c-79 55 -164 116 -164 214c0 86 64 146 168 159v149h39v-147h3
c75 0 116 -15 140 -15v-123c-24 69 -68 107 -158 107c-76 0 -126 -35 -125 -107c1 -71 81 -118 158 -173c78 -52 153 -114 153 -205z" />
    <glyph glyph-name="euro" unicode="&#x20ac;" horiz-adv-x="714" 
d="M211 288c29 -156 128 -247 274 -247c73 0 132 20 179 53c-11 -29 -30 -51 -57 -67c-39 -23 -85 -36 -148 -36c-174 0 -303 109 -331 297h-108v36h104c-1 15 -2 30 -2 45c0 25 2 48 5 71h-107v37h113c37 171 162 283 326 283c90 0 155 -19 207 -44l-5 -128
c-50 80 -115 129 -218 129c-121 0 -211 -86 -235 -240h407l-7 -37h-404c-1 -16 -2 -32 -2 -49c0 -23 1 -46 4 -67h382l-7 -36h-370z" />
    <glyph glyph-name="florin" unicode="&#x192;" horiz-adv-x="428" 
d="M338 730c-48 0 -75 -30 -80 -83l-20 -215h122l-6 -44h-120c-13 -141 -24 -256 -34 -348c-11 -101 -48 -180 -152 -180c-29 0 -58 5 -84 13l4 76c31 -23 63 -45 95 -45c46 0 65 30 70 78c13 129 25 266 38 406h-110l7 44h107c5 54 10 108 16 163c11 106 72 185 167 185
c44 0 71 -5 94 -11l-4 -76c-30 21 -63 37 -110 37z" />
    <glyph glyph-name="sterling" unicode="&#xa3;" horiz-adv-x="472" 
d="M325 36c60 0 91 39 127 108l-14 -146c-28 1 -51 2 -83 2h-319c84 44 95 99 95 178v185h-81l7 44h74v168c0 117 67 185 157 185c45 0 86 -5 117 -11l25 -96c-51 35 -101 59 -154 59c-48 0 -73 -33 -74 -85c-1 -71 -1 -146 -2 -220h149l-6 -44h-143c-1 -61 -1 -120 -2 -175
c-1 -70 -16 -112 -63 -147v-5h190z" />
    <glyph glyph-name="yen" unicode="&#xa5;" horiz-adv-x="642" 
d="M556 677l-103 -189h143v-37h-163l-62 -114v-2h225v-36h-225c0 -110 1 -171 5 -224c2 -34 23 -57 76 -75h-238c52 17 70 39 73 72c4 47 5 99 5 175v52h-251v36h244c-7 17 -16 34 -22 45l-40 71h-182v37h161l-103 184c-18 31 -36 56 -80 78h186c-25 -10 -35 -24 -35 -41
c0 -10 3 -20 9 -31l169 -306h4l161 308c5 10 8 19 8 28c0 18 -13 32 -44 42h160c-46 -15 -63 -39 -81 -73z" />
    <glyph glyph-name="emquad" unicode="&#x2001;" horiz-adv-x="1000" 
 />
    <glyph glyph-name="emspace" unicode="&#x2003;" horiz-adv-x="1000" 
 />
    <glyph glyph-name="enquad" unicode="&#x2000;" horiz-adv-x="500" 
 />
    <glyph glyph-name="enspace" unicode="&#x2002;" horiz-adv-x="500" 
 />
    <glyph glyph-name="figurespace" unicode="&#x2007;" 
 />
    <glyph glyph-name="fourperemspace" unicode="&#x2005;" horiz-adv-x="250" 
 />
    <glyph glyph-name="hairspace" unicode="&#x200a;" horiz-adv-x="100" 
 />
    <glyph glyph-name="punctuationspace" unicode="&#x2008;" horiz-adv-x="250" 
 />
    <glyph glyph-name="nbspace" unicode="&#xa0;" horiz-adv-x="240" 
 />
    <glyph glyph-name="thinspace" unicode="&#x2009;" horiz-adv-x="166" 
 />
    <glyph glyph-name="threeperemspace" unicode="&#x2004;" horiz-adv-x="333" 
 />
    <glyph glyph-name="hyphen.case" horiz-adv-x="388" 
d="M64 327l5 56c61 4 197 19 243 31l-5 -55c-66 -4 -197 -19 -243 -32z" />
    <glyph glyph-name="percent" unicode="%" horiz-adv-x="881" 
d="M230 388c-107 0 -182 73 -182 182c0 108 75 190 182 190c112 0 179 -75 179 -187c0 -104 -67 -185 -179 -185zM147 0l505 760h76l-507 -760h-74zM231 415c65 0 100 61 100 154c0 97 -39 162 -102 162c-62 0 -104 -69 -104 -162s46 -154 106 -154zM654 -9
c-107 0 -182 73 -182 182c0 108 75 190 182 190c112 0 179 -75 179 -187c0 -104 -67 -185 -179 -185zM655 18c65 0 100 61 100 154c0 98 -39 162 -102 162c-62 0 -104 -69 -104 -162s46 -154 106 -154z" />
    <glyph glyph-name="perthousand" unicode="&#x2030;" horiz-adv-x="1291" 
d="M230 388c-107 0 -182 73 -182 182c0 108 75 190 182 190c112 0 179 -75 179 -187c0 -104 -67 -185 -179 -185zM147 0l505 760h76l-507 -760h-74zM231 415c65 0 100 61 100 154c0 97 -39 162 -102 162c-62 0 -104 -69 -104 -162s46 -154 106 -154zM654 -9
c-107 0 -182 73 -182 182c0 108 75 190 182 190c112 0 179 -75 179 -187c0 -104 -67 -185 -179 -185zM1064 -9c-107 0 -182 73 -182 182c0 108 75 190 182 190c112 0 179 -75 179 -187c0 -104 -67 -185 -179 -185zM655 18c65 0 100 61 100 154c0 98 -39 162 -102 162
c-62 0 -104 -69 -104 -162s46 -154 106 -154zM1065 18c65 0 100 61 100 154c0 98 -39 162 -102 162c-62 0 -104 -69 -104 -162s46 -154 106 -154z" />
    <glyph glyph-name="fraction" unicode="&#x2044;" horiz-adv-x="576" 
d="M-16 0l532 760h76l-534 -760h-74z" />
    <glyph glyph-name="plus" unicode="+" 
d="M570 321v-54h-234v-257h-72v257h-234v54h234v247h72v-247h234z" />
    <glyph glyph-name="minus" unicode="&#x2212;" 
d="M30 267v54h540v-54h-540z" />
    <glyph glyph-name="plusminus" unicode="&#xb1;" 
d="M336 386h234v-54h-234v-232h-72v232h-234v54h234v232h72v-232zM30 0v54h540v-54h-540z" />
    <glyph glyph-name="divide" unicode="&#xf7;" 
d="M300 463c-34 0 -57 35 -57 59c0 27 27 54 55 54s57 -30 57 -58c0 -27 -25 -55 -55 -55zM30 267v54h540v-54h-540zM300 10c-34 0 -57 35 -57 59c0 27 27 54 55 54s57 -30 57 -58c0 -27 -25 -55 -55 -55z" />
    <glyph glyph-name="multiply" unicode="&#xd7;" 
d="M524 480l-186 -186l186 -186l-38 -38l-186 186l-186 -186l-38 38l186 186l-186 186l38 38l186 -186l186 186z" />
    <glyph glyph-name="equal" unicode="=" 
d="M30 367v54h540v-54h-540zM30 187v54h540v-54h-540z" />
    <glyph glyph-name="approxequal" unicode="&#x2248;" 
d="M65 333c-1 13 -1 25 -1 40c0 53 33 96 99 96c74 0 225 -60 280 -60c45 0 58 30 59 74h30c3 -14 4 -27 4 -43c0 -47 -37 -88 -96 -88c-70 0 -224 57 -283 57c-42 0 -58 -29 -60 -76h-32zM65 147c-1 13 -1 26 -1 40c0 53 33 96 99 96c74 0 225 -60 280 -60
c45 0 58 30 59 75h30c3 -15 4 -28 4 -44c0 -47 -37 -88 -96 -88c-70 0 -224 57 -283 57c-42 0 -58 -29 -60 -76h-32z" />
    <glyph glyph-name="notequal" unicode="&#x2260;" 
d="M570 367h-210l-40 -126h250v-54h-267l-80 -253h-66l80 253h-207v54h224l40 126h-264v54h281l86 271h66l-86 -271h193v-54z" />
    <glyph glyph-name="less" unicode="&#x3c;" 
d="M562 15l-532 279l532 279v-60l-396 -210l396 -205v-83z" />
    <glyph glyph-name="greater" unicode="&#x3e;" 
d="M30 573l532 -279l-532 -279v60l396 210l-396 205v83z" />
    <glyph glyph-name="lessequal" unicode="&#x2264;" 
d="M562 108l-532 233l532 232v-50l-396 -175l396 -170v-70zM22 7v54h540v-54h-540z" />
    <glyph glyph-name="greaterequal" unicode="&#x2265;" 
d="M30 573l532 -232l-532 -233v50l396 175l-396 171v69zM30 7v54h540v-54h-540z" />
    <glyph glyph-name="logicalnot" unicode="&#xac;" 
d="M480 140v214h-444v54h516v-268h-72z" />
    <glyph glyph-name="product" unicode="&#x220f;" horiz-adv-x="851" 
d="M99 -140c52 17 70 39 73 72c4 42 5 128 5 306c0 111 1 362 -2 476h-48c-58 0 -81 -35 -115 -104l6 144c27 -2 51 -4 78 -4h665c27 0 51 2 78 4l-6 -144c-34 69 -45 104 -103 104h-44v-476c0 -177 1 -254 5 -303c3 -34 23 -57 76 -75h-238c52 17 70 39 73 72
c4 42 5 128 5 306c0 110 1 359 -2 476h-349v-476c0 -177 1 -254 5 -303c3 -34 23 -57 76 -75h-238z" />
    <glyph glyph-name="summation" unicode="&#x2211;" horiz-adv-x="592" 
d="M566 -142c-29 1 -52 2 -85 2h-463c25 21 53 57 78 92l236 345c-77 115 -154 231 -231 346c-27 40 -51 74 -82 107h457c28 0 54 2 80 4v-157c-38 70 -54 112 -117 112h-278c75 -120 163 -252 249 -375c-100 -142 -194 -278 -275 -400h326c58 0 82 53 119 121z" />
    <glyph glyph-name="pi" unicode="&#x3c0;" horiz-adv-x="648" 
d="M81 0c44 21 60 43 60 84v358c-39 0 -75 -5 -108 -24l-9 43c34 20 74 25 117 25h463v-44h-96v-358c0 -41 14 -63 62 -84h-188c44 21 60 43 60 84v358h-237v-358c0 -41 12 -63 60 -84h-184z" />
    <glyph glyph-name="micro" unicode="&#xb5;" horiz-adv-x="612" 
d="M289 44c44 0 90 11 127 45c-19 -67 -80 -97 -150 -97c-35 0 -65 7 -89 20v-176l-68 -10v559c-17 20 -36 40 -53 60l121 52v-344c0 -73 35 -109 112 -109zM518 44c22 0 37 7 50 18c0 -22 -7 -40 -21 -53c-12 -11 -30 -17 -53 -17c-48 0 -78 34 -78 83c0 42 1 85 1 129v181
c-17 20 -36 40 -53 60l121 52c-1 -73 -2 -131 -4 -189c-3 -85 -4 -203 -4 -220c0 -27 13 -44 41 -44z" />
    <glyph glyph-name="radical" unicode="&#x221a;" 
d="M282 0l-143 415l-101 -36v55l137 49l130 -384h6l175 681h114v-45h-73l-191 -735h-54z" />
    <glyph glyph-name="infinity" unicode="&#x221e;" horiz-adv-x="872" 
d="M243 42c-105 0 -175 87 -175 208c0 118 70 223 195 223c91 0 139 -64 185 -158h4c25 100 81 158 168 158c119 0 184 -83 184 -207c0 -128 -80 -223 -190 -224c-93 -1 -147 47 -203 169h-2c-17 -112 -83 -169 -166 -169zM259 110c74 0 126 43 148 108
c-32 79 -78 190 -173 190c-76 0 -123 -61 -123 -139c0 -99 62 -159 148 -159zM641 113c79 0 125 59 125 142c0 95 -56 148 -154 148c-79 0 -135 -46 -157 -95c41 -115 94 -195 186 -195z" />
    <glyph glyph-name="integral" unicode="&#x222b;" horiz-adv-x="513" 
d="M161 -134c-18 0 -33 4 -45 11c-16 9 -26 24 -28 43c10 -3 25 -7 63 -7c43 0 75 27 75 82c0 117 -18 257 -18 387c0 157 19 362 143 362c21 0 37 -5 48 -13c18 -11 26 -28 26 -41c-16 3 -31 6 -52 6c-45 0 -94 -26 -94 -87c0 -76 22 -215 22 -355
c0 -204 -20 -388 -140 -388z" />
    <glyph glyph-name="partialdiff" unicode="&#x2202;" horiz-adv-x="548" 
d="M248 -8c-115 0 -177 99 -177 217c0 156 82 259 207 259c66 0 108 -27 136 -62h2c0 196 -61 338 -156 338c-51 0 -92 -39 -135 -78c0 39 4 67 26 85c21 17 52 29 100 29c153 0 225 -128 225 -367c0 -245 -75 -421 -228 -421zM255 25c101 0 155 133 160 366
c-41 23 -75 39 -131 39c-82 0 -147 -84 -147 -216c0 -112 43 -189 118 -189z" />
    <glyph glyph-name="emptyset" unicode="&#x2205;" 
d="M556 500l-82 -83c33 -38 52 -88 52 -143c0 -121 -101 -226 -227 -226c-54 0 -103 18 -141 49l-80 -81l-33 34l79 79c-33 39 -52 90 -52 145c0 125 101 225 227 225c54 0 104 -19 143 -50l82 83zM120 272c0 -41 13 -80 36 -111l252 255c-29 22 -66 35 -109 35
c-107 0 -179 -82 -179 -179zM478 272c0 42 -13 81 -37 112l-252 -256c29 -23 67 -36 110 -36c107 0 179 82 179 180z" />
    <glyph glyph-name="lozenge" unicode="&#x25ca;" horiz-adv-x="587" 
d="M268 -5c-46 104 -102 199 -168 283c67 78 124 165 171 263h55c44 -101 97 -192 161 -273c-63 -81 -115 -172 -158 -273h-61zM298 49l122 218l-124 209l-129 -198z" />
    <glyph glyph-name="apple" unicode="&#xf8ff;" horiz-adv-x="1000" 
d="M373 -8c-10 0 -20 2 -26 8v134c-20 0 -33 7 -41 25l-50 106l-64 -56c-10 -8 -21 -10 -32 -10h-12c-10 0 -17 4 -17 19v108c-9 7 -12 15 -12 27s4 19 12 25v7h-55c-8 0 -12 1 -12 6c0 12 17 30 40 30c15 0 28 -6 43 -16c87 36 154 69 204 69h450c52 0 55 -10 55 -58v-251
c20 0 25 -22 25 -42c0 -9 -1 -16 -3 -23c-26 7 -40 23 -40 43c0 9 2 14 7 20v246l-42 -170v-26c0 -34 -12 -63 -34 -82v-131c-6 -5 -15 -7 -25 -7s-18 2 -23 7v105c-5 -2 -11 -4 -17 -4v-18c0 -4 -3 -6 -9 -6c-5 0 -8 2 -8 6v17h-14v-17c0 -4 -4 -6 -9 -6s-8 2 -8 6v18
c-6 0 -13 2 -18 4v-105c-5 -6 -14 -8 -25 -8c-10 0 -19 2 -23 8v134h-86v-134c-5 -5 -14 -8 -26 -8c-11 0 -19 2 -24 8v134h-55v-134c-4 -5 -15 -8 -26 -8z" />
    <glyph glyph-name="onesuperior" unicode="&#xb9;" horiz-adv-x="378" 
d="M47 343c74 13 111 38 111 82v237l-101 46l177 53v-336c0 -45 32 -71 99 -82h-286z" />
    <glyph glyph-name="twosuperior" unicode="&#xb2;" horiz-adv-x="444" 
d="M55 343v32c146 92 223 152 223 256c0 61 -31 100 -91 100c-54 0 -95 -34 -140 -91l6 91c37 15 84 27 145 27c97 0 176 -41 176 -130c0 -101 -116 -165 -247 -229v-3h171c52 0 70 12 101 55l-11 -110c-25 1 -45 2 -73 2h-260z" />
    <glyph glyph-name="threesuperior" unicode="&#xb3;" horiz-adv-x="418" 
d="M184 335c-49 0 -93 7 -130 20l-7 68c42 -31 86 -54 134 -54c57 0 97 32 97 84c0 61 -41 90 -115 94v15c65 13 94 40 94 90c0 47 -29 77 -81 77c-51 0 -89 -38 -123 -80l7 92c37 12 79 18 133 18c92 0 155 -32 155 -95s-51 -87 -120 -101v-2c80 -4 138 -33 138 -104
c0 -80 -80 -122 -182 -122z" />
    <glyph glyph-name="onehalf" unicode="&#xbd;" horiz-adv-x="940" 
d="M47 343c74 13 111 38 111 82v237l-101 46l177 53v-336c0 -45 32 -71 99 -82h-286zM133 0l532 760h76l-534 -760h-74zM545 0v32c146 92 223 152 223 256c0 61 -31 100 -91 100c-54 0 -95 -34 -140 -91l6 91c37 15 84 27 145 27c97 0 176 -41 176 -130
c0 -101 -116 -165 -247 -229v-3h171c52 0 70 12 101 55l-11 -110c-25 1 -45 2 -73 2h-260z" />
    <glyph glyph-name="onequarter" unicode="&#xbc;" horiz-adv-x="882" 
d="M47 343c74 13 111 38 111 82v237l-101 46l177 53v-336c0 -45 32 -71 99 -82h-286zM133 0l532 760h76l-534 -760h-74zM668 -9v112h-243l287 317h28v-264h93v-53h-93v-112h-72zM511 156h157v164z" />
    <glyph glyph-name="threequarters" unicode="&#xbe;" horiz-adv-x="912" 
d="M163 0l532 760h76l-534 -760h-74zM184 335c-49 0 -93 7 -130 20l-7 68c42 -31 86 -54 134 -54c57 0 97 32 97 84c0 61 -41 90 -115 94v15c65 13 94 40 94 90c0 47 -29 77 -81 77c-51 0 -89 -38 -123 -80l7 92c37 12 79 18 133 18c92 0 155 -32 155 -95s-51 -87 -120 -101
v-2c80 -4 138 -33 138 -104c0 -80 -80 -122 -182 -122zM698 -9v112h-236l33 44l247 273h28v-264h93v-53h-93v-112h-72zM541 156h157v164z" />
    <glyph glyph-name="acutecomb" unicode="&#x301;" 
d="M258 557l64 171c12 2 26 3 41 3c16 0 31 -1 45 -3c-52 -50 -102 -114 -139 -171h-11z" />
    <glyph glyph-name="acutecomb.case" horiz-adv-x="0" 
d="M-361 788l102 132c15 0 32 -2 49 -4c18 -3 36 -7 51 -12c-65 -34 -136 -77 -192 -116h-10z" />
    <glyph glyph-name="caroncomb" unicode="&#x30c;" 
d="M261 561l-79 171h12c29 -42 66 -89 106 -130c39 41 76 88 105 130h12l-79 -171c-13 -3 -25 -4 -38 -4s-26 1 -39 4z" />
    <glyph glyph-name="caroncomb.case" horiz-adv-x="0" 
d="M-339 782l-79 148h12c29 -36 66 -77 106 -112c39 35 76 76 105 112h12l-79 -148c-13 -2 -25 -3 -38 -3s-26 1 -39 3z" />
    <glyph glyph-name="cedillacomb" unicode="&#x327;" 
d="M283 -227c-20 0 -40 3 -54 11c-16 9 -27 21 -33 39c22 -13 45 -21 72 -21c35 0 58 18 58 53c0 36 -29 55 -82 55l50 90h13l-30 -67c64 -5 100 -25 100 -75c0 -54 -40 -85 -94 -85z" />
    <glyph glyph-name="circumflexcomb" unicode="&#x302;" 
d="M182 557l79 171c13 3 26 4 39 4s25 -1 38 -4l79 -171h-12c-29 42 -66 89 -105 130c-40 -41 -77 -88 -106 -130h-12z" />
    <glyph glyph-name="circumflexcomb.case" horiz-adv-x="0" 
d="M-423 766l82 153c14 3 28 4 41 4c14 0 26 -1 40 -4l82 -153h-13c-30 38 -68 80 -109 117c-42 -37 -80 -79 -110 -117h-13z" />
    <glyph glyph-name="dieresiscomb" unicode="&#x308;" 
d="M208 609c-27 0 -42 19 -42 42c0 25 16 42 42 42c24 0 43 -14 43 -40c0 -28 -19 -44 -43 -44zM390 609c-27 0 -42 19 -42 42c0 25 16 42 42 42c25 0 43 -14 43 -40c0 -28 -18 -44 -43 -44z" />
    <glyph glyph-name="dieresiscomb.case" horiz-adv-x="0" 
d="M-393 802c-26 0 -41 18 -41 40c0 24 16 40 41 40c23 0 41 -13 41 -38c0 -27 -18 -42 -41 -42zM-209 802c-26 0 -40 18 -40 40c0 24 15 40 40 40c24 0 42 -13 42 -38c0 -27 -18 -42 -42 -42z" />
    <glyph glyph-name="dotaccentcomb" unicode="&#x307;" 
d="M299 611c-25 0 -52 26 -52 51c0 24 27 53 52 53c24 0 52 -28 52 -53c0 -24 -26 -51 -52 -51z" />
    <glyph glyph-name="dotaccentcomb.case" horiz-adv-x="0" 
d="M-300 798c-25 0 -52 26 -52 51c0 24 27 53 52 53c24 0 52 -28 52 -53c0 -24 -26 -51 -52 -51z" />
    <glyph glyph-name="gravecomb" unicode="&#x300;" 
d="M317 557c-37 57 -87 121 -139 171c14 2 29 3 45 3c15 0 29 -1 41 -3l64 -171h-11z" />
    <glyph glyph-name="gravecomb.case" horiz-adv-x="0" 
d="M-249 788c-56 39 -127 82 -192 116c15 5 33 10 51 12c17 2 34 4 49 4l102 -132h-10z" />
    <glyph glyph-name="ringcomb" unicode="&#x30a;" 
d="M299 561c-49 0 -84 37 -84 83s35 83 84 83c50 0 85 -37 85 -83s-35 -83 -85 -83zM299 577c27 0 43 29 43 67s-16 67 -43 67c-26 0 -42 -29 -42 -67s16 -67 42 -67z" />
    <glyph glyph-name="ringcomb.case" horiz-adv-x="0" 
d="M-301 736c-46 0 -78 35 -78 77c0 43 32 77 78 77s79 -34 79 -77c0 -42 -33 -77 -79 -77zM-301 751c25 0 40 27 40 62s-15 62 -40 62c-24 0 -39 -27 -39 -62s15 -62 39 -62z" />
    <glyph glyph-name="slashlongcomb" unicode="&#x338;" horiz-adv-x="0" 
d="M-484 -84l334 685h42l-334 -685h-42z" />
    <glyph glyph-name="slashlongcomb.case" horiz-adv-x="0" 
d="M-524 -50l404 854h44l-404 -854h-44z" />
    <glyph glyph-name="slashshortcomb" unicode="&#x337;" horiz-adv-x="0" 
d="M-424 160v55l248 271v-58z" />
    <glyph glyph-name="slashshortcomb.case" horiz-adv-x="0" 
d="M-451 203v55l301 271v-58z" />
    <glyph glyph-name="strokeshortcomb.case" 
d="M146 378v35h308v-35h-308z" />
    <glyph glyph-name="tildecomb" unicode="&#x303;" 
d="M160 567v28c0 51 30 81 77 81c53 0 93 -17 136 -17c33 0 49 18 62 44c1 -10 2 -24 2 -33c0 -42 -20 -70 -70 -70c-51 0 -92 16 -136 16c-34 0 -55 -19 -71 -49z" />
    <glyph glyph-name="tildecomb.case" horiz-adv-x="0" 
d="M-435 786v31c0 51 28 79 77 79c48 0 87 -17 128 -17c30 0 46 20 60 45c1 -9 2 -24 2 -33c0 -43 -20 -72 -71 -72c-46 0 -85 17 -127 17c-32 0 -53 -19 -69 -50z" />
    </font>
</defs>
</svg>
